<svg width="64" height="64" viewBox="0 0 64 64" fill="none" xmlns="http://www.w3.org/2000/svg">
<path d="M0 12.1673C0 5.44749 5.44749 0 12.1673 0H51.8327C58.5525 0 64 5.44749 64 12.1673V51.8327C64 58.5525 58.5525 64 51.8327 64H12.1673C5.44749 64 0 58.5525 0 51.8327V12.1673Z" fill="#83B57B"/>
<path d="M22.8364 46.593C24.0222 47.7789 25.9473 47.7789 27.1331 46.593L41.8429 31.8832C42.2653 31.4608 42.5902 30.9572 42.8014 30.4212C44.2797 30.8354 45.7174 31.0547 46.9845 31.0466C50.1198 31.0303 51.1594 29.6576 51.5006 28.8373C51.8417 28.025 52.0854 26.3193 49.8842 24.0775C49.8598 24.0531 49.8355 24.0288 49.8111 24.0044C48.4465 22.6398 46.4646 21.3808 44.2147 20.4468C43.8005 20.2762 43.3862 20.1219 42.9801 19.9757V19.9513C42.9557 18.1481 41.5018 16.6942 39.6986 16.6698L30.8857 16.548C29.7161 16.5317 28.5952 16.9866 27.7748 17.8151L13.0569 32.5249C11.871 33.7108 11.871 35.6358 13.0569 36.8217L22.8364 46.593ZM34.1753 21.8113C35.1582 20.8285 36.7502 20.8285 37.733 21.8113C38.3178 22.3962 38.5533 23.2003 38.4396 23.9557C39.4062 24.638 40.5596 25.2715 41.7942 25.7832C42.2328 25.9619 42.6552 26.1244 43.0613 26.2624L43.0126 22.721C43.0857 22.7535 43.1507 22.7779 43.2238 22.8104C45.1488 23.6145 46.8789 24.7029 47.9917 25.8157C48.0079 25.832 48.0242 25.8482 48.0404 25.8644C49.0963 26.9447 49.21 27.6351 49.1207 27.8463C48.8445 28.5043 45.8798 29.0891 41.38 27.2128C40.0641 26.6605 38.8295 25.9782 37.8304 25.239C37.798 25.2796 37.7573 25.3202 37.7249 25.3609C36.742 26.3437 35.15 26.3437 34.1672 25.3609C33.1925 24.3862 33.1925 22.7942 34.1753 21.8113Z" fill="#FCF779"/>
</svg>
