<svg width="64" height="64" viewBox="0 0 64 64" fill="none" xmlns="http://www.w3.org/2000/svg">
<path d="M0 12.1673C0 5.44749 5.44749 0 12.1673 0H51.8327C58.5525 0 64 5.44749 64 12.1673V51.8327C64 58.5525 58.5525 64 51.8327 64H12.1673C5.44749 64 0 58.5525 0 51.8327V12.1673Z" fill="#F48461"/>
<path d="M55.5476 13.6639C55.4565 13.4331 55.2464 13.2707 55 13.2406C54.7544 13.2106 54.5109 13.3175 54.3668 13.5195C53.5113 14.7189 52.3888 15.1187 51.0884 15.5817C50.0399 15.9552 48.9556 16.3411 47.7838 17.1824C46.1265 18.3722 45.3684 19.9941 45.7464 21.5313L45.706 21.5831C45.014 20.5792 44.261 19.6506 43.4664 18.8215C39.7486 14.9422 34.5538 12.61 29.2134 12.4231C28.9781 12.4148 28.739 12.4106 28.5027 12.4106C22.5395 12.4106 16.8318 15.0764 12.8433 19.7242C8.87555 24.3479 7.11693 30.367 8.01853 36.2379C8.09391 36.7287 8.18824 37.2245 8.29916 37.712C9.76564 44.1667 13.5112 49.0769 18.5754 51.1832C19.8238 51.7025 21.083 51.9657 22.3176 51.9657C25.3849 51.9657 28.0641 50.3251 29.6683 47.4646C30.2781 46.3761 30.6716 45.2505 30.8374 44.1187C30.9351 43.4507 30.8683 42.7833 30.8035 42.1365C30.7368 41.4707 30.6739 40.8415 30.7746 40.208C31.0056 38.7559 32.0199 37.8888 33.4881 37.8888C33.9057 37.8888 34.3325 37.9575 34.7587 38.0933C34.2597 39.0084 33.8065 39.8822 33.4106 40.6922C32.5714 42.4087 31.9925 43.8303 31.6895 44.917C31.5028 45.5871 31.0066 47.3681 32.2165 48.2078C32.6007 48.4745 33.0879 48.5686 33.5949 48.4743C34.0517 48.3894 35.4419 48.1311 39.3924 43.6338C40.4526 42.427 41.5951 41.0304 42.7893 39.482C45.855 38.4495 48.2407 35.88 48.8718 32.9274C49.0297 32.1893 49.0956 31.3995 49.0675 30.579C50.2154 28.8051 51.2221 27.15 52.2352 25.3707C52.2546 25.3364 52.2738 25.2999 52.2928 25.2624C53.7632 24.8597 55.0296 23.7153 55.773 22.1152C56.8583 19.7797 56.7783 16.7781 55.5476 13.6639ZM38.9745 24.7228C38.4427 25.5674 37.5286 26.0717 36.5289 26.0717C35.9862 26.0717 35.4553 25.9181 34.9937 25.6274C34.3413 25.2165 33.8876 24.5761 33.7168 23.8242C33.5461 23.0724 33.6779 22.2989 34.089 21.6463C34.6209 20.8017 35.5351 20.2974 36.5348 20.2974C37.0777 20.2974 37.6085 20.451 38.0699 20.7418C38.7223 21.1525 39.1759 21.7929 39.3468 22.5449C39.5175 23.2968 39.3854 24.0702 38.9745 24.7228ZM42.7216 29.9533C44.1811 27.8029 45.7245 25.6653 47.1906 23.764C47.4282 23.9786 47.6939 24.1883 47.9818 24.388C48.4588 24.719 48.9576 24.9749 49.4672 25.1501C48.2295 27.2668 46.8986 29.3638 45.2873 31.7372C42.6397 35.6382 39.8868 39.2618 37.5357 41.9407C36.2225 43.4369 35.0732 44.5922 34.1876 45.3077C34.5294 44.2143 35.1826 42.7136 36.0918 40.9356C37.7175 37.7561 40.072 33.8559 42.7216 29.9533ZM17.0971 29.9348C16.5542 29.9348 16.0233 29.7812 15.5617 29.4904C14.9092 29.0796 14.4557 28.4394 14.2849 27.6873C14.1141 26.9354 14.2463 26.1618 14.6574 25.5093C15.189 24.6648 16.1032 24.1605 17.1028 24.1605C17.6457 24.1605 18.1767 24.3141 18.6382 24.6049C19.985 25.4532 20.3908 27.2391 19.543 28.5858C19.0109 29.4305 18.0965 29.9348 17.0971 29.9348ZM14.071 36.2917C14.6028 35.4469 15.5169 34.9426 16.5166 34.9426C17.0593 34.9426 17.5901 35.0963 18.0519 35.387C18.7043 35.7979 19.1578 36.4381 19.3286 37.1901C19.4996 37.9418 19.3674 38.7152 18.9562 39.368C18.4246 40.2124 17.5103 40.7168 16.5108 40.7168C15.9679 40.7168 15.4369 40.5632 14.9751 40.2724C14.3227 39.8615 13.8693 39.2213 13.6986 38.4694C13.528 37.7176 13.6603 36.9441 14.071 36.2917ZM23.3162 19.1462C23.848 18.3016 24.7623 17.7973 25.7618 17.7973C26.3045 17.7973 26.8354 17.9509 27.2969 18.2416C28.6439 19.0897 29.0496 20.8757 28.2018 22.2226C27.6697 23.0673 26.7555 23.5716 25.7559 23.5716C25.2132 23.5716 24.6823 23.418 24.2207 23.1272C23.5684 22.7165 23.115 22.0762 22.9442 21.3241C22.7731 20.5723 22.9054 19.7989 23.3162 19.1462Z" fill="#FDE461"/>
</svg>
