<svg width="64" height="64" viewBox="0 0 64 64" fill="none" xmlns="http://www.w3.org/2000/svg">
<path d="M0 12.1673C0 5.44749 5.44749 0 12.1673 0H51.8327C58.5525 0 64 5.44749 64 12.1673V51.8327C64 58.5525 58.5525 64 51.8327 64H12.1673C5.44749 64 0 58.5525 0 51.8327V12.1673Z" fill="#7AC7E8"/>
<path d="M36.7265 45.2731V46.4288C36.7265 47.3485 36.0482 48.1136 35.1656 48.2438L34.8795 49.2937C34.7243 49.8634 34.2094 50.2622 33.6128 50.2622H30.7769C30.1803 50.2622 29.6655 49.8634 29.5102 49.2937L29.2323 48.2438C28.3415 48.1054 27.6632 47.3485 27.6632 46.4207V45.2649C27.6632 44.6464 28.1617 44.1499 28.7828 44.1499H35.6069C36.228 44.158 36.7265 44.6545 36.7265 45.2731ZM41.9815 29.6952C41.9815 32.3241 40.9354 34.7088 39.2355 36.4587C37.9442 37.7934 37.1106 39.4945 36.8328 41.3094C36.7102 42.0908 36.0319 42.6686 35.231 42.6686H29.1588C28.366 42.6686 27.6795 42.0989 27.5651 41.3176C27.2791 39.5026 26.4373 37.7772 25.1461 36.4505C23.4789 34.7251 22.441 32.3811 22.4164 29.8011C22.3592 24.3805 26.6907 19.9937 32.1336 19.953C37.5683 19.9123 41.9815 24.291 41.9815 29.6952ZM33.3022 23.7945C33.3022 23.1923 32.8119 22.6958 32.1989 22.6958C28.3088 22.6958 25.1379 25.8455 25.1379 29.7278C25.1379 30.3301 25.6282 30.8265 26.2412 30.8265C26.8459 30.8265 27.3445 30.3382 27.3445 29.7278C27.3445 27.0582 29.5265 24.8933 32.1989 24.8933C32.8119 24.8933 33.3022 24.405 33.3022 23.7945ZM32.1989 16.7544C32.8037 16.7544 33.3022 16.2661 33.3022 15.6557V11.806C33.3022 11.2037 32.8119 10.7072 32.1989 10.7072C31.586 10.7072 31.0957 11.1955 31.0957 11.806V15.6557C31.0957 16.2661 31.5942 16.7544 32.1989 16.7544ZM19.2128 29.6871C19.2128 29.0848 18.7225 28.5884 18.1095 28.5884H14.2439C13.6391 28.5884 13.1406 29.0767 13.1406 29.6871C13.1406 30.2894 13.631 30.7859 14.2439 30.7859H18.1095C18.7225 30.7859 19.2128 30.2975 19.2128 29.6871ZM50.154 28.5884H46.2884C45.6836 28.5884 45.1851 29.0767 45.1851 29.6871C45.1851 30.2894 45.6754 30.7859 46.2884 30.7859H50.154C50.7587 30.7859 51.2573 30.2975 51.2573 29.6871C51.2573 29.0848 50.7669 28.5884 50.154 28.5884ZM21.4603 38.8352L18.7225 41.5617C18.2893 41.9931 18.2893 42.6849 18.7225 43.1163C18.9349 43.3279 19.221 43.4337 19.4988 43.4337C19.7767 43.4337 20.0627 43.3279 20.2752 43.1163L23.013 40.3897C23.4462 39.9584 23.4462 39.2666 23.013 38.8352C22.5881 38.4039 21.8852 38.4039 21.4603 38.8352ZM42.1612 20.8645C42.4391 20.8645 42.7251 20.7587 42.9376 20.5471L45.6754 17.8206C46.1086 17.3892 46.1086 16.6974 45.6754 16.2661C45.2423 15.8347 44.5476 15.8347 44.1145 16.2661L41.3767 18.9926C40.9435 19.424 40.9435 20.1158 41.3767 20.5471C41.5973 20.7587 41.8752 20.8645 42.1612 20.8645ZM21.4603 20.539C21.6727 20.7506 21.9588 20.8564 22.2366 20.8564C22.5145 20.8564 22.8005 20.7506 23.013 20.539C23.4462 20.1076 23.4462 19.4158 23.013 18.9845L20.2752 16.2579C19.8421 15.8266 19.1474 15.8266 18.7143 16.2579C18.2811 16.6893 18.2811 17.3811 18.7143 17.8125L21.4603 20.539ZM42.9376 38.8352C42.5045 38.4039 41.8098 38.4039 41.3767 38.8352C40.9435 39.2666 40.9435 39.9584 41.3767 40.3897L44.1145 43.1163C44.327 43.3279 44.613 43.4337 44.8909 43.4337C45.1687 43.4337 45.4548 43.3279 45.6673 43.1163C46.1004 42.6849 46.1004 41.9931 45.6673 41.5617L42.9376 38.8352Z" fill="white"/>
</svg>
