<svg width="271" height="271" viewBox="0 0 271 271" fill="none" xmlns="http://www.w3.org/2000/svg">
<g filter="url(#filter0_d)">
<rect x="4" width="263" height="263" rx="50" fill="#83B57B"/>
</g>
<path d="M97.8424 191.468C102.716 196.341 110.626 196.341 115.5 191.468L175.948 131.02C177.683 129.284 179.018 127.215 179.886 125.012C185.961 126.714 191.869 127.615 197.076 127.582C209.96 127.515 214.233 121.874 215.634 118.503C217.036 115.165 218.038 108.156 208.992 98.9434C208.892 98.8433 208.792 98.7431 208.692 98.643C203.084 93.0355 194.94 87.8618 185.694 84.0233C183.992 83.3224 182.29 82.6882 180.621 82.0874V81.9872C180.52 74.5773 174.546 68.6025 167.136 68.5024L130.92 68.0017C126.114 67.935 121.508 69.8042 118.136 73.2087L57.6549 133.657C52.7817 138.53 52.7817 146.441 57.6549 151.314L97.8424 191.468ZM144.439 89.6309C148.477 85.5921 155.019 85.5921 159.058 89.6309C161.461 92.0341 162.429 95.3386 161.962 98.4427C165.934 101.247 170.674 103.85 175.747 105.953C177.55 106.687 179.285 107.355 180.954 107.922L180.754 93.3692C181.055 93.5028 181.322 93.6029 181.622 93.7364C189.533 97.0409 196.642 101.514 201.215 106.086C201.282 106.153 201.349 106.22 201.415 106.287C205.754 110.726 206.222 113.563 205.855 114.431C204.72 117.135 192.537 119.538 174.045 111.827C168.638 109.558 163.564 106.754 159.459 103.717C159.325 103.883 159.158 104.05 159.025 104.217C154.986 108.256 148.444 108.256 144.405 104.217C140.4 100.212 140.4 93.6696 144.439 89.6309Z" fill="#FCF779"/>
<defs>
<filter id="filter0_d" x="0" y="0" width="271" height="271" filterUnits="userSpaceOnUse" color-interpolation-filters="sRGB">
<feFlood flood-opacity="0" result="BackgroundImageFix"/>
<feColorMatrix in="SourceAlpha" type="matrix" values="0 0 0 0 0 0 0 0 0 0 0 0 0 0 0 0 0 0 127 0"/>
<feOffset dy="4"/>
<feGaussianBlur stdDeviation="2"/>
<feColorMatrix type="matrix" values="0 0 0 0 0 0 0 0 0 0 0 0 0 0 0 0 0 0 0.25 0"/>
<feBlend mode="normal" in2="BackgroundImageFix" result="effect1_dropShadow"/>
<feBlend mode="normal" in="SourceGraphic" in2="effect1_dropShadow" result="shape"/>
</filter>
</defs>
</svg>
