<svg width="26" height="34" viewBox="0 0 26 34" fill="none" xmlns="http://www.w3.org/2000/svg">
<path d="M12.5686 0C5.63862 0 0 5.6154 0 12.5176C0 14.3179 0.370014 16.0368 1.09921 17.627C4.24172 24.4753 10.2668 31.7055 12.0389 33.7582C12.1717 33.9116 12.3653 34 12.569 34C12.7727 34 12.9662 33.9116 13.099 33.7582C14.8705 31.7059 20.8955 24.476 24.0391 17.627C24.7686 16.0368 25.1383 14.3179 25.1383 12.5176C25.1376 5.6154 19.499 0 12.5686 0ZM12.5686 19.0192C8.96875 19.0192 6.03973 16.1023 6.03973 12.5172C6.03973 8.93182 8.96875 6.01486 12.5686 6.01486C16.1685 6.01486 19.0975 8.93182 19.0975 12.5172C19.0979 16.1023 16.1688 19.0192 12.5686 19.0192Z" fill="#F38C2D"/>
</svg>
