<svg width="53" height="52" viewBox="0 0 53 52" fill="none" xmlns="http://www.w3.org/2000/svg">
<path d="M49.4486 2.86041C47.5302 0.953589 45.2189 0 42.5165 0H9.8114C7.10895 0 4.79765 0.953589 2.87845 2.86041C0.959602 4.76759 0 7.06429 0 9.74992V42.2497C0 44.9351 0.959602 47.2321 2.87845 49.1392C4.79765 51.0464 7.10895 52 9.8114 52H42.5161C45.2186 52 47.5299 51.0464 49.4482 49.1392C51.3674 47.2321 52.327 44.9352 52.327 42.2497V9.74992C52.3269 7.06429 51.3673 4.76723 49.4486 2.86041ZM42.8558 39.4709C42.3789 40.5089 41.3058 41.4121 39.6368 42.1799C37.9675 42.9477 36.4851 43.3315 35.1902 43.3315C34.8268 43.3315 34.4405 43.3036 34.0319 43.2472C33.623 43.1904 33.2772 43.1343 32.9934 43.0779C32.7096 43.0214 32.3343 42.92 31.8692 42.7731C31.4033 42.6268 31.068 42.5136 30.8643 42.4347C30.6593 42.356 30.2848 42.2149 29.7401 42.0119C29.1949 41.8082 28.8539 41.684 28.7185 41.6398C24.9938 40.2848 21.3537 37.842 17.7995 34.3101C14.2453 30.7774 11.7867 27.1609 10.4239 23.4602C10.3788 23.3246 10.2538 22.986 10.0492 22.4446C9.84493 21.9033 9.70257 21.5306 9.6231 21.3277C9.54411 21.1246 9.43039 20.7916 9.28267 20.3293C9.13507 19.8665 9.03317 19.4944 8.97625 19.2119C8.91921 18.9302 8.86289 18.5862 8.80597 18.1798C8.74918 17.7735 8.7209 17.3893 8.7209 17.0285C8.7209 15.7419 9.10715 14.2693 9.87953 12.6104C10.6518 10.9518 11.5601 9.88545 12.605 9.41138C13.8087 8.91467 14.9557 8.66637 16.0459 8.66637C16.2954 8.66637 16.4774 8.68914 16.5907 8.7342C16.7044 8.77985 16.8918 8.98249 17.1531 9.34368C17.4145 9.70486 17.6982 10.1617 18.0048 10.7148C18.3114 11.2679 18.6124 11.804 18.9076 12.3229C19.2028 12.8419 19.4868 13.3551 19.7594 13.8633C20.032 14.3707 20.2022 14.6928 20.2702 14.8277C20.3384 14.9412 20.4861 15.1552 20.7131 15.4715C20.94 15.7872 21.1108 16.069 21.2241 16.3175C21.3375 16.5658 21.3944 16.8028 21.3944 17.0285C21.3944 17.3675 21.1614 17.7792 20.6959 18.264C20.2301 18.7494 19.7191 19.1953 19.1626 19.6017C18.606 20.0081 18.0952 20.4426 17.6296 20.9053C17.1644 21.3676 16.9313 21.7457 16.9313 22.0391C16.9313 22.1972 16.9711 22.3833 17.0506 22.5976C17.1301 22.8125 17.204 22.9874 17.2721 23.1226C17.3402 23.2579 17.4484 23.4498 17.5957 23.6984C17.7433 23.9469 17.8401 24.1047 17.8852 24.1726C19.1342 26.4069 20.5709 28.331 22.1945 29.945C23.8187 31.5591 25.7546 32.9862 28.0034 34.2276C28.071 34.2731 28.2303 34.3688 28.4811 34.5157C28.7307 34.6618 28.9242 34.769 29.0602 34.8367C29.1966 34.9044 29.3721 34.9779 29.5882 35.0563C29.8043 35.135 29.9917 35.1748 30.1513 35.1748C30.5136 35.1748 31.0134 34.8027 31.65 34.058C32.2858 33.3126 32.9335 32.5737 33.5921 31.8401C34.2503 31.1071 34.7836 30.7404 35.1932 30.7404C35.4202 30.7404 35.6582 30.7965 35.9091 30.9092C36.159 31.022 36.4423 31.1917 36.7601 31.4172C37.0785 31.6437 37.2942 31.7898 37.4078 31.8584L39.2125 32.8392C40.4164 33.4714 41.4213 34.0298 42.2278 34.5151C43.0344 35.0005 43.4717 35.3332 43.5399 35.5134C43.5851 35.6262 43.6072 35.8073 43.6072 36.0555C43.6064 37.1379 43.3564 38.2778 42.8558 39.4709Z" fill="url(#paint0_linear)"/>
<defs>
<linearGradient id="paint0_linear" x1="26.1635" y1="0" x2="26.1635" y2="52" gradientUnits="userSpaceOnUse">
<stop stop-color="#F38C2D"/>
<stop offset="1" stop-color="#E24A4A"/>
</linearGradient>
</defs>
</svg>
