<svg width="64" height="52" viewBox="0 0 64 52" fill="none" xmlns="http://www.w3.org/2000/svg">
<path d="M63.986 6.15566C61.6317 7.19974 59.1017 7.90539 56.4462 8.22276C59.1567 6.59801 61.2381 4.02537 62.2182 0.960059C59.6819 2.46428 56.8724 3.55681 53.8822 4.14567C51.4874 1.59433 48.0757 0 44.3001 0C37.05 0 31.1722 5.87761 31.1722 13.1272C31.1722 14.1561 31.2885 15.158 31.5123 16.1188C20.6019 15.5714 10.929 10.3451 4.45437 2.40296C3.3244 4.3418 2.67702 6.59684 2.67702 9.0026C2.67702 13.5569 4.99479 17.575 8.51719 19.9291C6.36513 19.861 4.3411 19.2705 2.571 18.2872C2.57007 18.342 2.57007 18.397 2.57007 18.4522C2.57007 24.8127 7.09512 30.1185 13.1005 31.3243C11.9989 31.6244 10.8392 31.7847 9.64178 31.7847C8.79594 31.7847 7.9735 31.7025 7.17212 31.5492C8.84251 36.7647 13.6906 40.56 19.435 40.6661C14.9422 44.1868 9.28182 46.2855 3.13154 46.2855C2.07201 46.2855 1.027 46.2235 0 46.1023C5.8095 49.8269 12.7099 52 20.1233 52C44.2694 52 57.4734 31.9967 57.4734 14.6494C57.4734 14.0802 57.4608 13.5141 57.4355 12.9512C60.0002 11.1004 62.226 8.78821 63.986 6.15566Z" fill="url(#paint0_linear)"/>
<defs>
<linearGradient id="paint0_linear" x1="31.993" y1="0" x2="31.993" y2="52" gradientUnits="userSpaceOnUse">
<stop stop-color="#F38C2D"/>
<stop offset="1" stop-color="#E24A4A"/>
</linearGradient>
</defs>
</svg>
