<svg width="64" height="69" viewBox="0 0 64 69" fill="none" xmlns="http://www.w3.org/2000/svg">
<path d="M40.4675 33.0044C45.9125 30.0144 49.6 24.2309 49.6 17.5848C49.6 7.87298 41.72 0 32 0C22.28 0 14.4 7.87298 14.4 17.5848C14.4 24.2617 18.1244 30.0695 23.6106 33.0473C26.1044 34.4008 28.9625 35.1697 32 35.1697C35.0681 35.1697 37.9556 34.3837 40.4675 33.0044Z" fill="#E24A4A"/>
<path d="M0.664451 63.1413L20.9969 36.3458C24.225 38.24 27.9856 39.3261 32 39.3261C36.0144 39.3261 39.775 38.24 43.0031 36.3458L63.3355 63.1413C65.2237 65.6299 62.863 68.7407 59.0862 68.7407H4.91382C1.13695 68.7407 -1.22367 65.6299 0.664451 63.1413Z" fill="#E24A4A"/>
</svg>
