<svg width="271" height="271" viewBox="0 0 271 271" fill="none" xmlns="http://www.w3.org/2000/svg">
<g filter="url(#filter0_d)">
<rect x="4" width="263" height="263" rx="50" fill="#7AC7E8"/>
<path d="M154.923 186.044V190.793C154.923 194.573 152.136 197.717 148.509 198.252L147.333 202.566C146.695 204.908 144.579 206.546 142.128 206.546H130.474C128.023 206.546 125.907 204.908 125.269 202.566L124.127 198.252C120.466 197.683 117.679 194.573 117.679 190.76V186.011C117.679 183.469 119.727 181.429 122.28 181.429H150.322C152.875 181.462 154.923 183.502 154.923 186.044ZM176.518 122.029C176.518 132.832 172.219 142.632 165.234 149.822C159.927 155.307 156.502 162.298 155.36 169.756C154.856 172.967 152.069 175.341 148.777 175.341H123.825C120.567 175.341 117.746 173 117.276 169.789C116.1 162.331 112.641 155.241 107.335 149.789C100.484 142.698 96.2185 133.066 96.1178 122.464C95.8827 100.189 113.682 82.1616 136.049 81.9944C158.382 81.8271 176.518 99.821 176.518 122.029ZM140.852 97.7808C140.852 95.3058 138.837 93.2656 136.318 93.2656C120.332 93.2656 107.301 106.209 107.301 122.163C107.301 124.638 109.316 126.678 111.835 126.678C114.32 126.678 116.369 124.671 116.369 122.163C116.369 111.193 125.336 102.296 136.318 102.296C138.837 102.296 140.852 100.289 140.852 97.7808ZM136.318 68.8502C138.803 68.8502 140.852 66.8434 140.852 64.335V48.5152C140.852 46.0402 138.837 44 136.318 44C133.799 44 131.784 46.0067 131.784 48.5152V64.335C131.784 66.8434 133.833 68.8502 136.318 68.8502ZM82.9529 121.995C82.9529 119.521 80.9378 117.48 78.419 117.48H62.5338C60.0486 117.48 58 119.487 58 121.995C58 124.47 60.015 126.511 62.5338 126.511H78.419C80.9378 126.511 82.9529 124.504 82.9529 121.995ZM210.102 117.48H194.217C191.731 117.48 189.683 119.487 189.683 121.995C189.683 124.47 191.698 126.511 194.217 126.511H210.102C212.587 126.511 214.636 124.504 214.636 121.995C214.636 119.521 212.621 117.48 210.102 117.48ZM92.1885 159.589L80.9378 170.793C79.1579 172.565 79.1579 175.408 80.9378 177.181C81.811 178.051 82.9865 178.485 84.1283 178.485C85.2702 178.485 86.4456 178.051 87.3188 177.181L98.5694 165.977C100.349 164.204 100.349 161.361 98.5694 159.589C96.8231 157.816 93.9348 157.816 92.1885 159.589ZM177.257 85.7403C178.398 85.7403 179.574 85.3055 180.447 84.4359L191.698 73.2316C193.478 71.459 193.478 68.6161 191.698 66.8434C189.918 65.0708 187.063 65.0708 185.283 66.8434L174.033 78.0478C172.253 79.8204 172.253 82.6633 174.033 84.4359C174.939 85.3055 176.081 85.7403 177.257 85.7403ZM92.1885 84.4025C93.0616 85.2721 94.2371 85.7069 95.3789 85.7069C96.5208 85.7069 97.6962 85.2721 98.5694 84.4025C100.349 82.6298 100.349 79.787 98.5694 78.0143L87.3188 66.81C85.5388 65.0374 82.6842 65.0374 80.9043 66.81C79.1243 68.5826 79.1243 71.4255 80.9043 73.1981L92.1885 84.4025ZM180.447 159.589C178.667 157.816 175.813 157.816 174.033 159.589C172.253 161.361 172.253 164.204 174.033 165.977L185.283 177.181C186.156 178.051 187.332 178.485 188.474 178.485C189.616 178.485 190.791 178.051 191.664 177.181C193.444 175.408 193.444 172.565 191.664 170.793L180.447 159.589Z" fill="white"/>
</g>
<defs>
<filter id="filter0_d" x="0" y="0" width="271" height="271" filterUnits="userSpaceOnUse" color-interpolation-filters="sRGB">
<feFlood flood-opacity="0" result="BackgroundImageFix"/>
<feColorMatrix in="SourceAlpha" type="matrix" values="0 0 0 0 0 0 0 0 0 0 0 0 0 0 0 0 0 0 127 0"/>
<feOffset dy="4"/>
<feGaussianBlur stdDeviation="2"/>
<feColorMatrix type="matrix" values="0 0 0 0 0 0 0 0 0 0 0 0 0 0 0 0 0 0 0.25 0"/>
<feBlend mode="normal" in2="BackgroundImageFix" result="effect1_dropShadow"/>
<feBlend mode="normal" in="SourceGraphic" in2="effect1_dropShadow" result="shape"/>
</filter>
</defs>
</svg>
