<svg width="39" height="52" viewBox="0 0 39 52" fill="none" xmlns="http://www.w3.org/2000/svg">
<path d="M19.4992 0C8.74786 0 0 8.58826 0 19.1445C0 21.898 0.574047 24.5269 1.70534 26.959C6.58068 37.4327 15.9281 48.4908 18.6774 51.6301C18.8834 51.8648 19.1837 52 19.4997 52C19.8158 52 20.1161 51.8648 20.322 51.6301C23.0703 48.4914 32.4177 37.4338 37.2947 26.959C38.4265 24.5269 39 21.898 39 19.1445C38.9989 8.58826 30.2511 0 19.4992 0ZM19.4992 29.0882C13.9143 29.0882 9.37015 24.627 9.37015 19.144C9.37015 13.6604 13.9143 9.1992 19.4992 9.1992C25.0841 9.1992 29.6282 13.6604 29.6282 19.144C29.6288 24.627 25.0846 29.0882 19.4992 29.0882Z" fill="url(#paint0_linear)"/>
<defs>
<linearGradient id="paint0_linear" x1="19.5" y1="0" x2="19.5" y2="52" gradientUnits="userSpaceOnUse">
<stop stop-color="#F38C2D"/>
<stop offset="1" stop-color="#E24A4A"/>
</linearGradient>
</defs>
</svg>
