<svg width="42" height="41" viewBox="0 0 42 41" fill="none" xmlns="http://www.w3.org/2000/svg">
<path fill-rule="evenodd" clip-rule="evenodd" d="M30.1081 25.5841C34.644 19.296 34.0828 10.4686 28.4244 4.80886C22.143 -1.47404 11.9588 -1.47405 5.67738 4.80886C-0.604051 11.0918 -0.604043 21.2784 5.67738 27.5613C11.3358 33.221 20.1611 33.7824 26.4477 29.2454L37.1833 39.9836C38.1941 40.9946 39.833 40.9946 40.8438 39.9836C41.8546 38.9725 41.8546 37.3333 40.8438 36.3223L30.1081 25.5841ZM25.0254 8.20865C29.4296 12.6139 29.4296 19.7562 25.0254 24.1615C20.6212 28.5667 13.4806 28.5667 9.07636 24.1615C4.67215 19.7562 4.67215 12.6139 9.07636 8.20865C13.4806 3.8034 20.6212 3.80339 25.0254 8.20865Z" fill="white"/>
</svg>
