<svg width="139" height="188" viewBox="0 0 139 188" fill="none" xmlns="http://www.w3.org/2000/svg">
<path d="M69.4971 0C31.1783 0 0 31.0499 0 69.2148C0 79.1696 2.04596 88.6743 6.078 97.4671C23.4542 135.334 56.7692 175.313 66.5682 186.663C67.3024 187.511 68.3727 188 69.499 188C70.6254 188 71.6957 187.511 72.4298 186.663C82.225 175.315 115.54 135.338 132.922 97.4671C136.956 88.6743 139 79.1696 139 69.2148C138.996 31.0499 107.818 0 69.4971 0ZM69.4971 105.165C49.5919 105.165 33.3962 89.036 33.3962 69.2128C33.3962 49.3877 49.5919 33.2586 69.4971 33.2586C89.4023 33.2586 105.598 49.3877 105.598 69.2128C105.6 89.036 89.4042 105.165 69.4971 105.165Z" fill="#EB6363"/>
</svg>
