<svg width="170" height="170" viewBox="0 0 170 170" fill="none" xmlns="http://www.w3.org/2000/svg">
<path fill-rule="evenodd" clip-rule="evenodd" d="M84.9788 0H85.0212C131.888 0 170 38.1331 170 85C170 131.867 131.888 170 85.0212 170C67.7344 170 51.7012 164.858 38.2606 155.954L5.58875 166.398L16.1819 134.821C5.9925 120.827 0 103.594 0 85C0 38.1225 38.1119 0 84.9788 0ZM117.799 132.026C124.291 130.624 132.43 125.821 134.481 120.031C136.531 114.229 136.531 109.289 135.936 108.237C135.456 107.402 134.32 106.855 132.624 106.039C132.182 105.826 131.703 105.595 131.187 105.336C128.69 104.093 116.546 98.0901 114.251 97.2932C111.998 96.4432 109.852 96.7407 108.152 99.142C107.828 99.5947 107.506 100.048 107.185 100.5C105.134 103.384 103.156 106.166 101.511 107.939C100.013 109.533 97.5694 109.735 95.5187 108.885C95.2952 108.792 95.039 108.688 94.7519 108.572C91.5051 107.261 84.3035 104.353 75.5863 96.5919C68.2337 90.0469 63.24 81.8976 61.795 79.4538C60.3763 77.0023 61.6 75.5648 62.731 74.2363C62.752 74.2117 62.7729 74.1871 62.7937 74.1626C63.5229 73.2603 64.2306 72.5091 64.9418 71.754C65.4533 71.2109 65.9667 70.6659 66.4912 70.0613C66.5691 69.9715 66.6449 69.8844 66.7187 69.7996C67.8325 68.5189 68.4958 67.7563 69.2431 66.162C70.0931 64.5151 69.4875 62.8151 68.8819 61.5613C68.4652 60.6833 65.891 54.4377 63.6813 49.0763C62.7358 46.7822 61.857 44.65 61.2425 43.1695C59.5956 39.2276 58.3419 39.0788 55.845 38.9726C55.7685 38.9688 55.6912 38.9648 55.6131 38.9609C54.8239 38.9209 53.9547 38.877 52.9975 38.877C49.7463 38.877 46.3569 39.8332 44.3063 41.9263C44.2346 41.9995 44.1599 42.0755 44.0824 42.1543C41.459 44.8224 35.615 50.7657 35.615 62.6132C35.615 74.4836 44.0375 85.9716 45.5959 88.0971C45.6388 88.1557 45.6766 88.2072 45.7088 88.2513C45.8025 88.3745 45.9793 88.6304 46.2365 89.0029C49.4185 93.611 64.917 116.055 88.0281 125.63C107.557 133.726 113.358 132.972 117.799 132.026Z" fill="#EB6363"/>
</svg>
