<svg width="53" height="52" viewBox="0 0 53 52" fill="none" xmlns="http://www.w3.org/2000/svg">
<path d="M26.1584 0C40.6017 0 52.3168 11.7151 52.3168 26.1584C52.3168 39.2171 42.7526 50.0381 30.2456 52V33.7198H36.3407L37.5005 26.1584H30.2456V21.2537C30.2456 19.1845 31.2572 17.1664 34.5066 17.1664H37.807V10.729C37.807 10.729 34.8131 10.2181 31.952 10.2181C31.2274 10.2181 30.5332 10.2714 29.8727 10.3768C25.429 11.0859 22.5093 14.1523 22.1165 19.2008C22.0864 19.5875 22.0711 19.9857 22.0711 20.3954V26.1584H15.4294V33.7198H22.0711V52C9.56417 50.0381 0 39.212 0 26.1584C0 11.7151 11.7151 0 26.1584 0Z" fill="url(#paint0_linear)"/>
<defs>
<linearGradient id="paint0_linear" x1="26.1584" y1="0" x2="26.1584" y2="52" gradientUnits="userSpaceOnUse">
<stop stop-color="#F38C2D"/>
<stop offset="1" stop-color="#E24A4A"/>
</linearGradient>
</defs>
</svg>
