<svg width="271" height="271" viewBox="0 0 271 271" fill="none" xmlns="http://www.w3.org/2000/svg">
<g filter="url(#filter0_d)">
<rect x="4" width="263" height="263" rx="50" fill="#F48461"/>
<path d="M232.266 56.1499C231.891 55.2016 231.028 54.5344 230.016 54.4105C229.006 54.2872 228.005 54.7268 227.413 55.5568C223.898 60.4855 219.285 62.1284 213.941 64.031C209.633 65.5659 205.177 67.1517 200.361 70.6091C193.551 75.4984 190.436 82.1632 191.989 88.4803L191.823 88.6931C188.979 84.5675 185.885 80.7517 182.619 77.3444C167.342 61.4032 145.994 51.8194 124.049 51.051C123.082 51.0172 122.099 51 121.128 51C96.6232 51 73.1681 61.9545 56.7776 81.0541C40.4728 100.055 33.246 124.789 36.951 148.915C37.2607 150.932 37.6484 152.969 38.1042 154.973C44.1305 181.497 59.5222 201.676 80.3333 210.331C85.4632 212.465 90.6377 213.546 95.7111 213.546C108.316 213.546 119.326 206.805 125.918 195.05C128.424 190.577 130.041 185.951 130.722 181.3C131.124 178.555 130.849 175.812 130.583 173.154C130.309 170.419 130.05 167.833 130.464 165.23C131.414 159.262 135.582 155.699 141.615 155.699C143.331 155.699 145.085 155.982 146.836 156.54C144.786 160.3 142.924 163.891 141.296 167.22C137.848 174.273 135.469 180.115 134.224 184.581C133.457 187.335 131.418 194.653 136.39 198.104C137.968 199.2 139.97 199.587 142.054 199.199C143.931 198.85 149.644 197.789 165.878 179.308C170.235 174.349 174.93 168.609 179.837 162.246C192.435 158.003 202.239 147.444 204.832 135.311C205.481 132.278 205.752 129.032 205.637 125.661C210.354 118.371 214.491 111.569 218.654 104.258C218.734 104.117 218.812 103.967 218.89 103.813C224.933 102.158 230.137 97.4553 233.192 90.8795C237.652 81.2822 237.323 68.9477 232.266 56.1499ZM164.161 101.595C161.975 105.066 158.219 107.138 154.111 107.138C151.881 107.138 149.699 106.507 147.802 105.313C145.121 103.624 143.257 100.992 142.555 97.9027C141.853 94.8131 142.395 91.6344 144.084 88.9528C146.27 85.482 150.027 83.4097 154.135 83.4097C156.366 83.4097 158.547 84.0408 160.443 85.2357C163.124 86.9236 164.988 89.5551 165.691 92.6453C166.392 95.7354 165.849 98.9136 164.161 101.595ZM179.559 123.089C185.557 114.252 191.899 105.469 197.924 97.6551C198.9 98.5371 199.992 99.3986 201.175 100.219C203.135 101.579 205.185 102.631 207.279 103.351C202.193 112.049 196.724 120.667 190.102 130.42C179.222 146.451 167.91 161.342 158.248 172.35C152.851 178.499 148.129 183.246 144.49 186.186C145.894 181.693 148.578 175.526 152.315 168.22C158.995 155.154 168.671 139.126 179.559 123.089ZM74.2583 123.013C72.0274 123.013 69.8457 122.382 67.9487 121.187C65.2675 119.499 63.4039 116.868 62.7019 113.778C61.9998 110.688 62.5433 107.509 64.2326 104.827C66.4171 101.357 70.174 99.2846 74.2815 99.2846C76.5128 99.2846 78.6946 99.9157 80.5911 101.111C86.1259 104.597 87.7934 111.936 84.3095 117.47C82.1227 120.941 78.3653 123.013 74.2583 123.013ZM61.8227 149.136C64.0081 145.665 67.7646 143.592 71.8725 143.592C74.103 143.592 76.2842 144.224 78.1817 145.418C80.8628 147.107 82.7265 149.738 83.4285 152.828C84.131 155.917 83.5876 159.095 81.8978 161.778C79.7133 165.248 75.9564 167.321 71.8489 167.321C69.618 167.321 67.4358 166.69 65.5383 165.495C62.8572 163.806 60.994 161.175 60.2925 158.085C59.5913 154.996 60.1353 151.817 61.8227 149.136ZM99.8149 78.679C102 75.2081 105.757 73.1358 109.865 73.1358C112.095 73.1358 114.276 73.7669 116.173 74.9614C121.708 78.4466 123.376 85.7862 119.891 91.3209C117.705 94.7922 113.948 96.8645 109.841 96.8645C107.61 96.8645 105.428 96.2334 103.532 95.0384C100.851 93.3506 98.9881 90.7195 98.2861 87.6289C97.5831 84.5392 98.1265 81.361 99.8149 78.679Z" fill="#FDE461"/>
</g>
<defs>
<filter id="filter0_d" x="0" y="0" width="271" height="271" filterUnits="userSpaceOnUse" color-interpolation-filters="sRGB">
<feFlood flood-opacity="0" result="BackgroundImageFix"/>
<feColorMatrix in="SourceAlpha" type="matrix" values="0 0 0 0 0 0 0 0 0 0 0 0 0 0 0 0 0 0 127 0"/>
<feOffset dy="4"/>
<feGaussianBlur stdDeviation="2"/>
<feColorMatrix type="matrix" values="0 0 0 0 0 0 0 0 0 0 0 0 0 0 0 0 0 0 0.25 0"/>
<feBlend mode="normal" in2="BackgroundImageFix" result="effect1_dropShadow"/>
<feBlend mode="normal" in="SourceGraphic" in2="effect1_dropShadow" result="shape"/>
</filter>
</defs>
</svg>
