<svg width="16" height="21" viewBox="0 0 16 21" fill="none" xmlns="http://www.w3.org/2000/svg">
<path d="M7.88166 0.866089C11.9959 0.866089 15.3434 4.10933 15.3434 8.09575C15.3434 9.13557 15.1238 10.1284 14.6909 11.0468C12.8252 15.0021 9.24823 19.178 8.19613 20.3635C8.1173 20.4521 8.00239 20.5032 7.88145 20.5032C7.76052 20.5032 7.6456 20.4521 7.56678 20.3635C6.51509 19.1782 2.93811 15.0025 1.07184 11.0468C0.638717 10.1284 0.419251 9.13557 0.419251 8.09575C0.419666 4.10933 3.76722 0.866089 7.88166 0.866089ZM7.88166 11.8509C10.0188 11.8509 11.7578 10.1661 11.7578 8.09555C11.7578 6.02477 10.0188 4.34004 7.88166 4.34004C5.74448 4.34004 4.00556 6.02477 4.00556 8.09555C4.00535 10.1661 5.74427 11.8509 7.88166 11.8509Z" fill="#FB7C06"/>
</svg>
