<svg width="957" height="205" viewBox="0 0 957 205" fill="none" xmlns="http://www.w3.org/2000/svg">
<path d="M68.874 9.43505C68.874 6.86412 70.6175 4.59854 73.1451 3.9625C94.9707 -1.5303 108.886 -1.12945 130.705 4.03235C133.237 4.63146 135.006 6.87942 135.006 9.44587C135.006 13.1901 131.355 15.8745 127.672 14.9558C109.77 10.4902 96.5964 10.2471 76.2426 15.0602C72.5186 15.9409 68.874 13.2097 68.874 9.43505Z" fill="url(#paint0_linear)"/>
<path d="M79.8961 24.7041C79.8961 22.0716 81.7062 19.7593 84.3109 19.1755C97.4728 16.2258 106.41 16.1569 119.574 19.1546C122.18 19.7479 123.984 22.068 123.984 24.7041C123.984 28.4605 120.415 31.2041 116.673 30.4918C105.986 28.4569 97.8886 28.4101 87.2001 30.4634C83.468 31.1805 79.8961 28.4515 79.8961 24.7041Z" fill="url(#paint1_linear)"/>
<path d="M108.954 38.6602C108.954 42.4781 105.813 45.573 101.94 45.573C98.0661 45.573 94.9259 42.4781 94.9259 38.6602C94.9259 34.8426 98.0661 31.7475 101.94 31.7475C105.813 31.7475 108.954 34.8426 108.954 38.6602Z" fill="url(#paint2_linear)"/>
<path d="M44.7157 58.9986L44.7134 58.8098L44.7116 58.5295L44.7106 58.2322C44.7106 40.5179 52.8333 24.6922 65.5736 14.2441C66.7777 17.0157 69.9211 18.7225 73.1436 18.0297C60.5505 26.9833 52.3412 41.6535 52.3412 58.2322H151.539C151.539 41.5362 143.213 26.7758 130.469 17.8406L130.64 17.8834C133.87 18.6861 137.078 17.014 138.303 14.2407C151.044 24.6888 159.17 40.516 159.17 58.2322C159.17 58.3708 159.168 58.5093 159.167 58.6475L159.164 58.9202V58.9986C167.706 61.1413 174.704 67.6108 177.314 76.2962L202.796 161.113C207.676 177.352 195.457 193.685 178.428 193.685H25.4517C8.42299 193.685 -3.79627 177.352 1.08305 161.112L26.5658 76.2962C29.175 67.6108 36.1744 61.1413 44.7157 58.9986Z" fill="url(#paint3_linear)"/>
<path d="M273.47 123.52C266.668 123.52 260.218 122.636 254.122 120.869C248.114 119.014 243.211 116.54 239.412 113.448C237.38 111.946 236.364 109.826 236.364 107.087C236.364 105.232 236.894 103.642 237.955 102.316C239.103 100.903 240.428 100.196 241.93 100.196C243.52 100.196 245.332 100.814 247.364 102.051C251.162 104.79 255.138 106.778 259.29 108.015C263.443 109.252 268.037 109.87 273.073 109.87C279.522 109.87 284.47 108.766 287.915 106.557C291.361 104.26 293.083 100.947 293.083 96.618C293.083 93.2608 291.449 90.6987 288.18 88.9317C285 87.0764 279.655 85.3095 272.145 83.6309C264.37 81.9523 258.054 80.0086 253.194 77.7999C248.335 75.5912 244.669 72.7641 242.195 69.3185C239.721 65.873 238.485 61.4998 238.485 56.1989C238.485 50.7214 240.031 45.8181 243.123 41.489C246.215 37.16 250.5 33.8028 255.977 31.4174C261.543 28.9437 267.772 27.7068 274.663 27.7068C287.297 27.7068 297.589 31.064 305.54 37.7784C306.689 38.7502 307.484 39.7221 307.926 40.6939C308.456 41.5774 308.721 42.7259 308.721 44.1395C308.721 45.9948 308.147 47.6292 306.998 49.0428C305.938 50.368 304.657 51.0306 303.155 51.0306C302.272 51.0306 301.432 50.8981 300.637 50.633C299.93 50.368 298.959 49.8821 297.722 49.1753C294.099 46.5248 290.566 44.5812 287.12 43.3443C283.763 42.0191 279.61 41.3565 274.663 41.3565C268.655 41.3565 263.885 42.5934 260.351 45.0671C256.905 47.4525 255.182 50.8097 255.182 55.1387C255.182 58.761 256.728 61.5439 259.821 63.4876C262.913 65.4312 268.169 67.2424 275.591 68.921C283.454 70.6879 289.815 72.6758 294.674 74.8844C299.621 77.0048 303.376 79.7436 305.938 83.1008C308.588 86.458 309.914 90.6545 309.914 95.6903C309.914 101.168 308.368 106.027 305.275 110.268C302.272 114.42 297.987 117.689 292.421 120.074C286.943 122.371 280.626 123.52 273.47 123.52Z" fill="white"/>
<path d="M348.305 55.9339C357.316 55.9339 363.986 58.1867 368.315 62.6925C372.733 67.1099 374.941 73.8685 374.941 82.9683V115.304C374.941 117.689 374.235 119.588 372.821 121.002C371.407 122.327 369.464 122.99 366.99 122.99C364.693 122.99 362.794 122.283 361.292 120.869C359.878 119.456 359.171 117.601 359.171 115.304V112.388C357.669 115.834 355.284 118.528 352.015 120.472C348.835 122.415 345.124 123.387 340.883 123.387C336.554 123.387 332.623 122.504 329.089 120.737C325.555 118.97 322.772 116.54 320.74 113.448C318.708 110.356 317.692 106.91 317.692 103.112C317.692 98.3408 318.885 94.586 321.27 91.8472C323.744 89.1084 327.72 87.1206 333.197 85.8837C338.675 84.6469 346.228 84.0284 355.858 84.0284H359.171V80.9804C359.171 76.6514 358.244 73.5151 356.388 71.5714C354.533 69.5394 351.529 68.5234 347.377 68.5234C344.815 68.5234 342.209 68.921 339.558 69.7161C336.908 70.4229 333.771 71.4831 330.149 72.8966C327.852 74.0451 326.173 74.6194 325.113 74.6194C323.523 74.6194 322.198 74.0451 321.138 72.8966C320.166 71.7481 319.68 70.2462 319.68 68.3909C319.68 66.889 320.033 65.6079 320.74 64.5478C321.535 63.3993 322.816 62.3391 324.583 61.3673C327.675 59.6886 331.342 58.3634 335.582 57.3916C339.912 56.4198 344.152 55.9339 348.305 55.9339ZM344.196 111.46C348.614 111.46 352.192 110.003 354.931 107.087C357.758 104.083 359.171 100.24 359.171 95.5578V92.7749H356.786C350.867 92.7749 346.273 93.0399 343.004 93.57C339.735 94.1001 337.394 95.0277 335.98 96.3529C334.566 97.6781 333.86 99.4893 333.86 101.786C333.86 104.613 334.832 106.955 336.775 108.81C338.807 110.577 341.281 111.46 344.196 111.46Z" fill="white"/>
<path d="M464.796 55.9339C471.864 55.9339 477.253 58.0542 480.964 62.2949C484.763 66.4472 486.662 73.2058 486.662 82.5707V115.171C486.662 117.733 485.867 119.721 484.277 121.134C482.775 122.46 480.787 123.122 478.313 123.122C475.928 123.122 473.94 122.46 472.35 121.134C470.848 119.721 470.097 117.733 470.097 115.171V82.5707C470.097 77.7116 469.214 74.266 467.447 72.234C465.768 70.1137 463.162 69.0535 459.628 69.0535C455.299 69.0535 451.853 70.5554 449.291 73.5592C446.729 76.4747 445.448 80.4945 445.448 85.6187V115.171C445.448 117.733 444.653 119.721 443.063 121.134C441.561 122.46 439.617 123.122 437.232 123.122C434.846 123.122 432.858 122.46 431.268 121.134C429.678 119.721 428.883 117.733 428.883 115.171V82.5707C428.883 77.7116 427.999 74.266 426.232 72.234C424.554 70.1137 421.948 69.0535 418.414 69.0535C414.085 69.0535 410.639 70.5554 408.077 73.5592C405.603 76.4747 404.366 80.4945 404.366 85.6187V115.171C404.366 117.733 403.571 119.721 401.981 121.134C400.391 122.46 398.403 123.122 396.017 123.122C393.632 123.122 391.644 122.46 390.054 121.134C388.552 119.721 387.801 117.733 387.801 115.171V63.8852C387.801 61.4114 388.596 59.512 390.187 58.1867C391.777 56.8615 393.765 56.1989 396.15 56.1989C398.447 56.1989 400.302 56.8615 401.716 58.1867C403.218 59.4236 403.969 61.2347 403.969 63.6201V66.8006C406.001 63.2667 408.695 60.5721 412.053 58.7168C415.498 56.8615 419.43 55.9339 423.847 55.9339C433.565 55.9339 440.059 59.9979 443.328 68.1259C445.271 64.4152 448.143 61.4556 451.942 59.2469C455.741 57.0382 460.025 55.9339 464.796 55.9339Z" fill="white"/>
<path d="M527.618 55.9339C536.629 55.9339 543.299 58.1867 547.628 62.6925C552.046 67.1099 554.254 73.8685 554.254 82.9683V115.304C554.254 117.689 553.548 119.588 552.134 121.002C550.72 122.327 548.777 122.99 546.303 122.99C544.006 122.99 542.107 122.283 540.605 120.869C539.191 119.456 538.484 117.601 538.484 115.304V112.388C536.982 115.834 534.597 118.528 531.328 120.472C528.148 122.415 524.437 123.387 520.196 123.387C515.867 123.387 511.936 122.504 508.402 120.737C504.868 118.97 502.085 116.54 500.053 113.448C498.021 110.356 497.005 106.91 497.005 103.112C497.005 98.3408 498.198 94.586 500.583 91.8472C503.057 89.1084 507.033 87.1206 512.51 85.8837C517.988 84.6469 525.541 84.0284 535.171 84.0284H538.484V80.9804C538.484 76.6514 537.557 73.5151 535.701 71.5714C533.846 69.5394 530.842 68.5234 526.69 68.5234C524.128 68.5234 521.522 68.921 518.871 69.7161C516.221 70.4229 513.084 71.4831 509.462 72.8966C507.165 74.0451 505.486 74.6194 504.426 74.6194C502.836 74.6194 501.511 74.0451 500.451 72.8966C499.479 71.7481 498.993 70.2462 498.993 68.3909C498.993 66.889 499.346 65.6079 500.053 64.5478C500.848 63.3993 502.129 62.3391 503.896 61.3673C506.988 59.6886 510.655 58.3634 514.895 57.3916C519.225 56.4198 523.465 55.9339 527.618 55.9339ZM523.509 111.46C527.927 111.46 531.505 110.003 534.244 107.087C537.071 104.083 538.484 100.24 538.484 95.5578V92.7749H536.099C530.18 92.7749 525.586 93.0399 522.317 93.57C519.048 94.1001 516.707 95.0277 515.293 96.3529C513.879 97.6781 513.173 99.4893 513.173 101.786C513.173 104.613 514.145 106.955 516.088 108.81C518.12 110.577 520.594 111.46 523.509 111.46Z" fill="white"/>
<path d="M603.293 56.1989C605.59 56.0222 607.401 56.5081 608.726 57.6566C610.051 58.8052 610.714 60.528 610.714 62.825C610.714 65.2104 610.139 66.9773 608.991 68.1259C607.842 69.2744 605.766 70.0253 602.762 70.3787L598.787 70.7763C593.574 71.3064 589.731 73.0733 587.257 76.0771C584.872 79.081 583.679 82.8357 583.679 87.3415V115.171C583.679 117.733 582.884 119.721 581.294 121.134C579.704 122.46 577.716 123.122 575.33 123.122C572.945 123.122 570.957 122.46 569.367 121.134C567.865 119.721 567.114 117.733 567.114 115.171V63.8852C567.114 61.4114 567.865 59.512 569.367 58.1867C570.957 56.8615 572.901 56.1989 575.198 56.1989C577.495 56.1989 579.35 56.8615 580.764 58.1867C582.177 59.4236 582.884 61.2347 582.884 63.6201V68.921C584.563 65.0337 587.037 62.0299 590.305 59.9095C593.663 57.7892 597.373 56.5965 601.437 56.3314L603.293 56.1989Z" fill="white"/>
<path d="M655.81 123.122C653.248 123.122 651.172 122.327 649.582 120.737C648.08 119.147 647.329 117.07 647.329 114.508V36.7183C647.329 34.1562 648.08 32.1242 649.582 30.6223C651.172 29.032 653.248 28.2369 655.81 28.2369C658.461 28.2369 660.537 29.032 662.039 30.6223C663.629 32.1242 664.424 34.1562 664.424 36.7183V114.508C664.424 117.07 663.629 119.147 662.039 120.737C660.537 122.327 658.461 123.122 655.81 123.122Z" fill="white"/>
<path d="M716.803 55.9339C724.578 55.9339 730.365 58.1426 734.164 62.5599C737.963 66.9773 739.862 73.6476 739.862 82.5707V115.171C739.862 117.645 739.111 119.588 737.609 121.002C736.196 122.415 734.208 123.122 731.646 123.122C729.084 123.122 727.052 122.415 725.55 121.002C724.048 119.588 723.297 117.645 723.297 115.171V83.4983C723.297 78.4625 722.325 74.7961 720.381 72.4991C718.526 70.202 715.566 69.0535 711.503 69.0535C706.732 69.0535 702.889 70.5554 699.973 73.5592C697.146 76.5631 695.732 80.5829 695.732 85.6187V115.171C695.732 117.645 694.981 119.588 693.48 121.002C691.978 122.415 689.946 123.122 687.384 123.122C684.822 123.122 682.79 122.415 681.288 121.002C679.874 119.588 679.167 117.645 679.167 115.171V63.8852C679.167 61.5881 679.918 59.7328 681.42 58.3193C682.922 56.9057 684.954 56.1989 687.516 56.1989C689.813 56.1989 691.668 56.9057 693.082 58.3193C694.584 59.6445 695.335 61.4114 695.335 63.6201V67.1982C697.544 63.5759 700.503 60.793 704.214 58.8493C707.924 56.9057 712.121 55.9339 716.803 55.9339Z" fill="white"/>
<path d="M806.78 28.2369C809.254 28.2369 811.286 28.9437 812.876 30.3572C814.467 31.7708 815.262 33.6261 815.262 35.9231V115.171C815.262 117.556 814.511 119.456 813.009 120.869C811.507 122.283 809.519 122.99 807.045 122.99C804.572 122.99 802.584 122.283 801.082 120.869C799.58 119.456 798.829 117.556 798.829 115.171V111.858C796.885 115.48 794.058 118.307 790.348 120.339C786.725 122.371 782.573 123.387 777.891 123.387C772.325 123.387 767.333 121.974 762.916 119.147C758.587 116.32 755.185 112.344 752.712 107.22C750.326 102.007 749.133 96.0437 749.133 89.3293C749.133 82.6149 750.326 76.7397 752.712 71.7039C755.185 66.6681 758.587 62.7808 762.916 60.042C767.245 57.3033 772.236 55.9339 777.891 55.9339C782.573 55.9339 786.725 56.9057 790.348 58.8493C793.97 60.793 796.753 63.5318 798.696 67.0657V35.6581C798.696 33.4494 799.403 31.6824 800.817 30.3572C802.319 28.9437 804.307 28.2369 806.78 28.2369ZM782.264 110.533C787.565 110.533 791.629 108.722 794.456 105.099C797.371 101.477 798.829 96.3088 798.829 89.5943C798.829 82.8799 797.371 77.7557 794.456 74.2218C791.629 70.5996 787.609 68.7885 782.396 68.7885C777.095 68.7885 772.987 70.5554 770.072 74.0893C767.156 77.6232 765.699 82.7032 765.699 89.3293C765.699 96.0437 767.156 101.256 770.072 104.967C772.987 108.677 777.051 110.533 782.264 110.533Z" fill="white"/>
<path d="M856.421 55.9339C865.432 55.9339 872.103 58.1867 876.432 62.6925C880.849 67.1099 883.058 73.8685 883.058 82.9683V115.304C883.058 117.689 882.351 119.588 880.938 121.002C879.524 122.327 877.58 122.99 875.107 122.99C872.81 122.99 870.91 122.283 869.408 120.869C867.995 119.456 867.288 117.601 867.288 115.304V112.388C865.786 115.834 863.401 118.528 860.132 120.472C856.951 122.415 853.241 123.387 849 123.387C844.671 123.387 840.739 122.504 837.205 120.737C833.671 118.97 830.888 116.54 828.857 113.448C826.825 110.356 825.809 106.91 825.809 103.112C825.809 98.3408 827.001 94.586 829.387 91.8472C831.86 89.1084 835.836 87.1206 841.314 85.8837C846.791 84.6469 854.345 84.0284 863.975 84.0284H867.288V80.9804C867.288 76.6514 866.36 73.5151 864.505 71.5714C862.649 69.5394 859.646 68.5234 855.493 68.5234C852.931 68.5234 850.325 68.921 847.675 69.7161C845.024 70.4229 841.888 71.4831 838.266 72.8966C835.969 74.0451 834.29 74.6194 833.23 74.6194C831.639 74.6194 830.314 74.0451 829.254 72.8966C828.282 71.7481 827.796 70.2462 827.796 68.3909C827.796 66.889 828.15 65.6079 828.857 64.5478C829.652 63.3993 830.933 62.3391 832.7 61.3673C835.792 59.6886 839.458 58.3634 843.699 57.3916C848.028 56.4198 852.269 55.9339 856.421 55.9339ZM852.313 111.46C856.73 111.46 860.308 110.003 863.047 107.087C865.874 104.083 867.288 100.24 867.288 95.5578V92.7749H864.902C858.983 92.7749 854.389 93.0399 851.12 93.57C847.851 94.1001 845.51 95.0277 844.096 96.3529C842.683 97.6781 841.976 99.4893 841.976 101.786C841.976 104.613 842.948 106.955 844.892 108.81C846.924 110.577 849.397 111.46 852.313 111.46Z" fill="white"/>
<path d="M933.819 55.9339C949.015 55.9339 956.612 64.8128 956.612 82.5707V115.171C956.612 117.645 955.861 119.588 954.36 121.002C952.946 122.415 950.958 123.122 948.396 123.122C945.834 123.122 943.802 122.415 942.3 121.002C940.798 119.588 940.047 117.645 940.047 115.171V82.5707C940.047 77.8883 939.075 74.4869 937.132 72.3665C935.276 70.1578 932.317 69.0535 928.253 69.0535C923.482 69.0535 919.639 70.5554 916.724 73.5592C913.896 76.5631 912.483 80.5829 912.483 85.6187V115.171C912.483 117.645 911.732 119.588 910.23 121.002C908.728 122.415 906.696 123.122 904.134 123.122C901.572 123.122 899.54 122.415 898.038 121.002C896.624 119.588 895.918 117.645 895.918 115.171V35.9231C895.918 33.6261 896.669 31.7708 898.17 30.3572C899.761 28.9437 901.793 28.2369 904.266 28.2369C906.74 28.2369 908.728 28.8995 910.23 30.2247C911.732 31.5499 912.483 33.361 912.483 35.6581V66.5356C914.692 63.09 917.607 60.4838 921.229 58.7168C924.94 56.8615 929.136 55.9339 933.819 55.9339Z" fill="white"/>
<path d="M274.673 150.259C275.448 150.259 276.039 150.503 276.447 150.993C276.895 151.441 277.12 152.053 277.12 152.827V191.544C277.12 192.278 276.916 192.869 276.508 193.318C276.1 193.766 275.529 193.991 274.795 193.991C274.062 193.991 273.511 193.766 273.144 193.318C272.777 192.869 272.594 192.278 272.594 191.544V160.289L259.321 185.734C258.75 186.916 257.914 187.507 256.813 187.507C255.753 187.507 254.917 186.916 254.306 185.734L240.972 160.595V191.544C240.972 192.278 240.768 192.869 240.36 193.318C239.993 193.766 239.443 193.991 238.709 193.991C237.975 193.991 237.404 193.766 236.996 193.318C236.589 192.869 236.385 192.278 236.385 191.544V152.827C236.385 152.053 236.609 151.441 237.057 150.993C237.506 150.503 238.118 150.259 238.892 150.259C239.912 150.259 240.727 150.85 241.339 152.032L256.875 181.819L272.227 152.032C272.553 151.38 272.899 150.931 273.266 150.687C273.674 150.401 274.143 150.259 274.673 150.259Z" fill="white"/>
<path d="M302.308 163.164C309.77 163.164 313.501 167.079 313.501 174.908V191.544C313.501 192.278 313.277 192.869 312.828 193.318C312.421 193.766 311.85 193.991 311.116 193.991C310.382 193.991 309.791 193.766 309.342 193.318C308.894 192.869 308.669 192.278 308.669 191.544V188.608C307.894 190.362 306.712 191.728 305.122 192.706C303.531 193.644 301.697 194.113 299.617 194.113C297.701 194.113 295.927 193.726 294.296 192.951C292.705 192.176 291.441 191.096 290.504 189.709C289.566 188.323 289.097 186.794 289.097 185.122C289.097 182.879 289.668 181.146 290.809 179.923C291.951 178.659 293.827 177.762 296.436 177.232C299.046 176.661 302.675 176.376 307.324 176.376H308.669V174.357C308.669 171.911 308.16 170.116 307.14 168.975C306.162 167.833 304.551 167.262 302.308 167.262C299.535 167.262 296.722 168.016 293.868 169.525C292.767 170.218 291.992 170.565 291.543 170.565C291.054 170.565 290.646 170.381 290.32 170.014C289.994 169.648 289.831 169.179 289.831 168.608C289.831 168.037 289.994 167.548 290.32 167.14C290.687 166.691 291.258 166.243 292.033 165.794C293.46 164.979 295.07 164.347 296.865 163.898C298.7 163.409 300.514 163.164 302.308 163.164ZM300.29 190.199C302.736 190.199 304.734 189.383 306.284 187.752C307.874 186.08 308.669 183.939 308.669 181.33V179.556H307.568C303.98 179.556 301.248 179.719 299.372 180.045C297.497 180.331 296.151 180.84 295.336 181.574C294.561 182.268 294.173 183.307 294.173 184.694C294.173 186.284 294.744 187.609 295.886 188.669C297.069 189.689 298.536 190.199 300.29 190.199Z" fill="white"/>
<path d="M340.369 163.286C342.081 163.164 342.938 163.857 342.938 165.366C342.938 166.018 342.754 166.549 342.387 166.956C342.02 167.323 341.388 167.548 340.491 167.629L338.656 167.813C335.924 168.057 333.885 169.036 332.54 170.748C331.235 172.42 330.583 174.398 330.583 176.681V191.544C330.583 192.36 330.358 192.971 329.91 193.379C329.461 193.787 328.87 193.991 328.136 193.991C327.402 193.991 326.79 193.787 326.301 193.379C325.853 192.931 325.628 192.319 325.628 191.544V165.733C325.628 164.958 325.873 164.367 326.362 163.959C326.852 163.511 327.443 163.286 328.136 163.286C328.788 163.286 329.339 163.511 329.787 163.959C330.236 164.367 330.46 164.938 330.46 165.672V169.097C331.317 167.303 332.519 165.937 334.069 164.999C335.659 164.061 337.474 163.511 339.512 163.348L340.369 163.286Z" fill="white"/>
<path d="M374.042 189.77C374.694 190.382 375.02 191.034 375.02 191.728C375.02 192.339 374.796 192.869 374.348 193.318C373.94 193.766 373.43 193.991 372.819 193.991C372.288 193.991 371.738 193.746 371.167 193.257L355.203 179.495V191.544C355.203 192.319 354.959 192.931 354.469 193.379C354.021 193.787 353.45 193.991 352.757 193.991C352.023 193.991 351.411 193.787 350.922 193.379C350.473 192.931 350.249 192.319 350.249 191.544V152.705C350.249 151.93 350.473 151.339 350.922 150.931C351.411 150.483 352.023 150.259 352.757 150.259C353.45 150.259 354.021 150.483 354.469 150.931C354.959 151.339 355.203 151.93 355.203 152.705V177.538L369.822 164.143C370.311 163.653 370.861 163.409 371.473 163.409C372.085 163.409 372.615 163.633 373.063 164.082C373.512 164.53 373.736 165.06 373.736 165.672C373.736 166.365 373.451 166.977 372.88 167.507L360.83 178.272L374.042 189.77Z" fill="white"/>
<path d="M406.41 186.773C406.859 186.773 407.246 186.957 407.572 187.324C407.899 187.691 408.062 188.16 408.062 188.731C408.062 189.75 407.348 190.688 405.921 191.544C404.453 192.4 402.904 193.053 401.273 193.501C399.642 193.909 398.051 194.113 396.502 194.113C391.894 194.113 388.245 192.747 385.554 190.015C382.903 187.283 381.578 183.511 381.578 178.7C381.578 175.642 382.169 172.95 383.352 170.626C384.534 168.261 386.186 166.426 388.306 165.121C390.467 163.817 392.914 163.164 395.646 163.164C399.519 163.164 402.598 164.428 404.881 166.956C407.165 169.484 408.306 172.91 408.306 177.232C408.306 178.047 408.143 178.639 407.817 179.006C407.491 179.373 406.961 179.556 406.227 179.556H386.532C386.899 186.57 390.222 190.076 396.502 190.076C398.092 190.076 399.458 189.872 400.6 189.465C401.742 189.016 402.965 188.425 404.27 187.691C405.33 187.079 406.043 186.773 406.41 186.773ZM395.707 167.017C393.097 167.017 390.997 167.833 389.407 169.464C387.857 171.095 386.94 173.399 386.654 176.376H403.964C403.882 173.358 403.128 171.054 401.701 169.464C400.274 167.833 398.276 167.017 395.707 167.017Z" fill="white"/>
<path d="M432.247 190.076C433.674 190.199 434.388 190.851 434.388 192.033C434.388 192.727 434.122 193.257 433.592 193.624C433.103 193.95 432.349 194.072 431.329 193.991L429.678 193.868C426.416 193.624 424.01 192.645 422.461 190.933C420.911 189.22 420.136 186.631 420.136 183.165V167.813H416.038C415.345 167.813 414.795 167.65 414.387 167.323C414.02 166.956 413.837 166.487 413.837 165.917C413.837 165.305 414.02 164.816 414.387 164.449C414.795 164.082 415.345 163.898 416.038 163.898H420.136V156.987C420.136 156.212 420.361 155.621 420.809 155.213C421.258 154.764 421.869 154.54 422.644 154.54C423.378 154.54 423.969 154.764 424.418 155.213C424.866 155.621 425.091 156.212 425.091 156.987V163.898H431.88C432.532 163.898 433.042 164.082 433.409 164.449C433.817 164.816 434.021 165.305 434.021 165.917C434.021 166.487 433.817 166.956 433.409 167.323C433.042 167.65 432.532 167.813 431.88 167.813H425.091V183.409C425.091 185.652 425.539 187.283 426.436 188.302C427.374 189.281 428.76 189.832 430.595 189.954L432.247 190.076Z" fill="white"/>
<path d="M457.314 163.164C459.924 163.164 462.228 163.817 464.226 165.121C466.224 166.426 467.773 168.261 468.874 170.626C469.975 172.95 470.526 175.662 470.526 178.761C470.526 181.86 469.975 184.571 468.874 186.896C467.773 189.179 466.224 190.953 464.226 192.217C462.269 193.481 459.965 194.113 457.314 194.113C454.99 194.113 452.951 193.603 451.198 192.584C449.485 191.565 448.181 190.117 447.284 188.241V202.615C447.284 203.349 447.059 203.92 446.611 204.327C446.203 204.776 445.612 205 444.837 205C444.062 205 443.451 204.776 443.002 204.327C442.554 203.879 442.329 203.308 442.329 202.615V165.733C442.329 164.999 442.554 164.408 443.002 163.959C443.451 163.511 444.062 163.286 444.837 163.286C445.612 163.286 446.203 163.511 446.611 163.959C447.059 164.408 447.284 164.999 447.284 165.733V169.036C448.181 167.16 449.485 165.713 451.198 164.693C452.951 163.674 454.99 163.164 457.314 163.164ZM456.336 190.015C459.231 190.015 461.474 189.036 463.064 187.079C464.654 185.122 465.449 182.349 465.449 178.761C465.449 175.173 464.654 172.38 463.064 170.381C461.474 168.343 459.231 167.323 456.336 167.323C453.441 167.323 451.198 168.302 449.608 170.259C448.058 172.216 447.284 175.01 447.284 178.639C447.284 182.268 448.058 185.081 449.608 187.079C451.198 189.036 453.441 190.015 456.336 190.015Z" fill="white"/>
<path d="M483.494 193.991C482.76 193.991 482.149 193.787 481.66 193.379C481.211 192.931 480.987 192.319 480.987 191.544V152.705C480.987 151.93 481.211 151.339 481.66 150.931C482.149 150.483 482.76 150.259 483.494 150.259C484.188 150.259 484.758 150.483 485.207 150.931C485.696 151.339 485.941 151.93 485.941 152.705V191.544C485.941 192.319 485.696 192.931 485.207 193.379C484.758 193.787 484.188 193.991 483.494 193.991Z" fill="white"/>
<path d="M510.432 163.164C517.894 163.164 521.625 167.079 521.625 174.908V191.544C521.625 192.278 521.401 192.869 520.952 193.318C520.545 193.766 519.974 193.991 519.24 193.991C518.506 193.991 517.915 193.766 517.466 193.318C517.018 192.869 516.793 192.278 516.793 191.544V188.608C516.019 190.362 514.836 191.728 513.246 192.706C511.656 193.644 509.821 194.113 507.741 194.113C505.825 194.113 504.051 193.726 502.42 192.951C500.83 192.176 499.566 191.096 498.628 189.709C497.69 188.323 497.221 186.794 497.221 185.122C497.221 182.879 497.792 181.146 498.933 179.923C500.075 178.659 501.951 177.762 504.561 177.232C507.17 176.661 510.799 176.376 515.448 176.376H516.793V174.357C516.793 171.911 516.284 170.116 515.264 168.975C514.286 167.833 512.675 167.262 510.432 167.262C507.66 167.262 504.846 168.016 501.992 169.525C500.891 170.218 500.116 170.565 499.667 170.565C499.178 170.565 498.77 170.381 498.444 170.014C498.118 169.648 497.955 169.179 497.955 168.608C497.955 168.037 498.118 167.548 498.444 167.14C498.811 166.691 499.382 166.243 500.157 165.794C501.584 164.979 503.195 164.347 504.989 163.898C506.824 163.409 508.638 163.164 510.432 163.164ZM508.414 190.199C510.86 190.199 512.858 189.383 514.408 187.752C515.998 186.08 516.793 183.939 516.793 181.33V179.556H515.692C512.104 179.556 509.372 179.719 507.496 180.045C505.621 180.331 504.275 180.84 503.46 181.574C502.685 182.268 502.297 183.307 502.297 184.694C502.297 186.284 502.868 187.609 504.01 188.669C505.193 189.689 506.66 190.199 508.414 190.199Z" fill="white"/>
<path d="M546.046 194.113C543.274 194.113 540.807 193.481 538.646 192.217C536.525 190.953 534.874 189.159 533.691 186.835C532.549 184.51 531.979 181.819 531.979 178.761C531.979 175.703 532.57 172.991 533.752 170.626C534.976 168.261 536.668 166.426 538.829 165.121C540.99 163.817 543.477 163.164 546.291 163.164C547.84 163.164 549.37 163.388 550.878 163.837C552.428 164.245 553.773 164.856 554.915 165.672C555.649 166.161 556.159 166.65 556.444 167.14C556.77 167.588 556.933 168.098 556.933 168.669C556.933 169.24 556.77 169.709 556.444 170.076C556.159 170.443 555.771 170.626 555.282 170.626C554.997 170.626 554.691 170.545 554.365 170.381C554.038 170.218 553.753 170.055 553.508 169.892C553.304 169.729 553.162 169.627 553.08 169.586C552.02 168.893 551.001 168.343 550.022 167.935C549.084 167.527 547.922 167.323 546.536 167.323C543.559 167.323 541.235 168.343 539.563 170.381C537.932 172.38 537.116 175.173 537.116 178.761C537.116 182.349 537.932 185.122 539.563 187.079C541.235 189.036 543.559 190.015 546.536 190.015C547.922 190.015 549.104 189.811 550.083 189.403C551.103 188.996 552.122 188.445 553.141 187.752C553.59 187.467 554.018 187.222 554.426 187.018C554.833 186.814 555.18 186.712 555.466 186.712C555.914 186.712 556.281 186.896 556.566 187.263C556.893 187.63 557.056 188.099 557.056 188.669C557.056 189.2 556.913 189.689 556.628 190.137C556.342 190.545 555.812 191.014 555.037 191.544C553.896 192.319 552.509 192.951 550.878 193.44C549.288 193.889 547.677 194.113 546.046 194.113Z" fill="white"/>
<path d="M589.137 186.773C589.586 186.773 589.973 186.957 590.299 187.324C590.625 187.691 590.789 188.16 590.789 188.731C590.789 189.75 590.075 190.688 588.648 191.544C587.18 192.4 585.63 193.053 583.999 193.501C582.368 193.909 580.778 194.113 579.229 194.113C574.621 194.113 570.972 192.747 568.28 190.015C565.63 187.283 564.305 183.511 564.305 178.7C564.305 175.642 564.896 172.95 566.078 170.626C567.261 168.261 568.912 166.426 571.033 165.121C573.194 163.817 575.64 163.164 578.372 163.164C582.246 163.164 585.325 164.428 587.608 166.956C589.892 169.484 591.033 172.91 591.033 177.232C591.033 178.047 590.87 178.639 590.544 179.006C590.218 179.373 589.688 179.556 588.954 179.556H569.259C569.626 186.57 572.949 190.076 579.229 190.076C580.819 190.076 582.185 189.872 583.327 189.465C584.468 189.016 585.692 188.425 586.996 187.691C588.057 187.079 588.77 186.773 589.137 186.773ZM578.434 167.017C575.824 167.017 573.724 167.833 572.134 169.464C570.584 171.095 569.667 173.399 569.381 176.376H586.691C586.609 173.358 585.855 171.054 584.428 169.464C583 167.833 581.002 167.017 578.434 167.017Z" fill="white"/>
<path d="M655.081 190.627C655.489 191.075 655.693 191.565 655.693 192.095C655.693 192.625 655.469 193.114 655.02 193.563C654.612 193.97 654.123 194.174 653.552 194.174C652.981 194.174 652.472 193.95 652.023 193.501L646.396 187.63C644.561 189.75 642.461 191.361 640.096 192.462C637.731 193.563 635.244 194.113 632.634 194.113C629.943 194.113 627.558 193.664 625.478 192.767C623.398 191.83 621.767 190.504 620.585 188.792C619.402 187.079 618.811 185.102 618.811 182.859C618.811 180.168 619.647 177.782 621.319 175.703C622.991 173.582 625.539 171.523 628.964 169.525C627.17 167.65 625.845 165.957 624.989 164.449C624.173 162.94 623.765 161.309 623.765 159.555C623.765 156.62 624.764 154.316 626.762 152.644C628.76 150.972 631.289 150.136 634.347 150.136C637.283 150.136 639.627 150.911 641.381 152.46C643.134 154.01 644.011 156.13 644.011 158.822C644.011 161.023 643.317 162.981 641.931 164.693C640.585 166.406 638.445 168.2 635.509 170.076L645.846 180.963C647.232 177.986 648.047 174.439 648.292 170.32C648.333 169.586 648.578 169.036 649.026 168.669C649.475 168.261 649.984 168.057 650.555 168.057C651.167 168.057 651.676 168.282 652.084 168.73C652.492 169.138 652.676 169.709 652.635 170.443C652.268 175.744 651.004 180.31 648.843 184.143L655.081 190.627ZM634.408 153.928C632.655 153.928 631.227 154.438 630.126 155.458C629.026 156.477 628.475 157.843 628.475 159.555C628.475 160.82 628.801 162.022 629.454 163.164C630.147 164.306 631.248 165.651 632.757 167.201C635.285 165.57 637.058 164.163 638.078 162.981C639.138 161.798 639.668 160.493 639.668 159.066C639.668 157.517 639.179 156.273 638.2 155.335C637.262 154.397 635.998 153.928 634.408 153.928ZM632.818 190.076C634.856 190.076 636.793 189.628 638.628 188.731C640.463 187.834 642.094 186.488 643.521 184.694L631.656 172.4C628.679 174.194 626.599 175.886 625.417 177.476C624.275 179.026 623.704 180.779 623.704 182.737C623.704 185.02 624.52 186.814 626.151 188.119C627.823 189.424 630.045 190.076 632.818 190.076Z" fill="white"/>
<path d="M720.58 190.81C720.743 191.136 720.825 191.483 720.825 191.85C720.825 192.462 720.58 192.971 720.091 193.379C719.642 193.787 719.092 193.991 718.439 193.991C717.42 193.991 716.706 193.501 716.299 192.523L711.956 182.614H688.897L684.493 192.523C684.086 193.501 683.372 193.991 682.353 193.991C681.7 193.991 681.129 193.787 680.64 193.379C680.151 192.931 679.906 192.4 679.906 191.789C679.906 191.463 679.988 191.136 680.151 190.81L697.644 151.91C697.888 151.339 698.255 150.911 698.745 150.626C699.234 150.34 699.764 150.197 700.335 150.197C700.946 150.197 701.497 150.361 701.986 150.687C702.476 150.972 702.843 151.38 703.087 151.91L720.58 190.81ZM690.732 178.455H710.121L700.396 156.497L690.732 178.455Z" fill="white"/>
<path d="M744.958 163.286C746.67 163.164 747.526 163.857 747.526 165.366C747.526 166.018 747.343 166.549 746.976 166.956C746.609 167.323 745.977 167.548 745.08 167.629L743.245 167.813C740.513 168.057 738.474 169.036 737.129 170.748C735.824 172.42 735.171 174.398 735.171 176.681V191.544C735.171 192.36 734.947 192.971 734.499 193.379C734.05 193.787 733.459 193.991 732.725 193.991C731.991 193.991 731.379 193.787 730.89 193.379C730.441 192.931 730.217 192.319 730.217 191.544V165.733C730.217 164.958 730.462 164.367 730.951 163.959C731.44 163.511 732.032 163.286 732.725 163.286C733.377 163.286 733.928 163.511 734.376 163.959C734.825 164.367 735.049 164.938 735.049 165.672V169.097C735.905 167.303 737.108 165.937 738.658 164.999C740.248 164.061 742.063 163.511 744.101 163.348L744.958 163.286Z" fill="white"/>
<path d="M770.989 190.076C772.416 190.199 773.13 190.851 773.13 192.033C773.13 192.727 772.865 193.257 772.335 193.624C771.845 193.95 771.091 194.072 770.072 193.991L768.42 193.868C765.158 193.624 762.752 192.645 761.203 190.933C759.653 189.22 758.879 186.631 758.879 183.165V167.813H754.781C754.087 167.813 753.537 167.65 753.129 167.323C752.762 166.956 752.579 166.487 752.579 165.917C752.579 165.305 752.762 164.816 753.129 164.449C753.537 164.082 754.087 163.898 754.781 163.898H758.879V156.987C758.879 156.212 759.103 155.621 759.551 155.213C760 154.764 760.612 154.54 761.386 154.54C762.12 154.54 762.711 154.764 763.16 155.213C763.609 155.621 763.833 156.212 763.833 156.987V163.898H770.622C771.274 163.898 771.784 164.082 772.151 164.449C772.559 164.816 772.763 165.305 772.763 165.917C772.763 166.487 772.559 166.956 772.151 167.323C771.784 167.65 771.274 167.813 770.622 167.813H763.833V183.409C763.833 185.652 764.281 187.283 765.178 188.302C766.116 189.281 767.503 189.832 769.338 189.954L770.989 190.076Z" fill="white"/>
<path d="M791.102 194.113C789.227 194.113 787.432 193.889 785.72 193.44C784.048 192.992 782.56 192.36 781.255 191.544C780.521 191.055 779.991 190.606 779.665 190.199C779.379 189.75 779.237 189.22 779.237 188.608C779.237 188.078 779.379 187.65 779.665 187.324C779.991 186.957 780.399 186.773 780.888 186.773C781.377 186.773 782.091 187.079 783.029 187.691C784.252 188.425 785.455 189.016 786.637 189.465C787.861 189.872 789.369 190.076 791.163 190.076C793.365 190.076 795.078 189.689 796.301 188.914C797.525 188.139 798.136 187.018 798.136 185.55C798.136 184.653 797.912 183.939 797.463 183.409C797.015 182.839 796.24 182.349 795.139 181.941C794.038 181.493 792.428 181.044 790.307 180.596C786.719 179.821 784.15 178.781 782.601 177.476C781.051 176.172 780.276 174.398 780.276 172.155C780.276 170.402 780.766 168.852 781.744 167.507C782.723 166.161 784.068 165.101 785.781 164.326C787.534 163.552 789.512 163.164 791.714 163.164C793.304 163.164 794.833 163.388 796.301 163.837C797.81 164.245 799.135 164.836 800.277 165.611C801.663 166.589 802.356 167.609 802.356 168.669C802.356 169.199 802.193 169.648 801.867 170.014C801.541 170.381 801.154 170.565 800.705 170.565C800.216 170.565 799.482 170.218 798.503 169.525C797.361 168.791 796.281 168.22 795.261 167.813C794.242 167.405 792.978 167.201 791.469 167.201C789.553 167.201 788.003 167.629 786.821 168.485C785.679 169.342 785.108 170.483 785.108 171.911C785.108 172.808 785.312 173.542 785.72 174.112C786.168 174.643 786.882 175.132 787.861 175.58C788.88 175.988 790.328 176.396 792.203 176.804C794.976 177.415 797.117 178.088 798.625 178.822C800.175 179.556 801.276 180.453 801.928 181.513C802.581 182.573 802.907 183.919 802.907 185.55C802.907 188.119 801.826 190.199 799.665 191.789C797.504 193.338 794.65 194.113 791.102 194.113Z" fill="white"/>
<defs>
<linearGradient id="paint0_linear" x1="101.94" y1="0" x2="101.94" y2="193.685" gradientUnits="userSpaceOnUse">
<stop stop-color="#F38C2D"/>
<stop offset="1" stop-color="#E24A4A"/>
</linearGradient>
<linearGradient id="paint1_linear" x1="101.94" y1="0" x2="101.94" y2="193.685" gradientUnits="userSpaceOnUse">
<stop stop-color="#F38C2D"/>
<stop offset="1" stop-color="#E24A4A"/>
</linearGradient>
<linearGradient id="paint2_linear" x1="101.94" y1="0" x2="101.94" y2="193.685" gradientUnits="userSpaceOnUse">
<stop stop-color="#F38C2D"/>
<stop offset="1" stop-color="#E24A4A"/>
</linearGradient>
<linearGradient id="paint3_linear" x1="101.94" y1="0" x2="101.94" y2="193.685" gradientUnits="userSpaceOnUse">
<stop stop-color="#F38C2D"/>
<stop offset="1" stop-color="#E24A4A"/>
</linearGradient>
</defs>
</svg>
