<svg width="346" height="74" viewBox="0 0 346 74" fill="none" xmlns="http://www.w3.org/2000/svg">
<path d="M24.9113 3.40581C24.9113 2.47777 25.5419 1.65996 26.4561 1.43036C34.3502 -0.5524 39.3834 -0.407703 47.2751 1.45557C48.1909 1.67184 48.8308 2.48329 48.8308 3.40971C48.8308 4.76128 47.5102 5.73028 46.178 5.39866C39.703 3.78669 34.9382 3.69895 27.5764 5.43636C26.2295 5.75427 24.9113 4.76837 24.9113 3.40581Z" fill="white"/>
<path d="M28.8979 8.91755C28.8979 7.96729 29.5526 7.13261 30.4947 6.92185C35.2552 5.85708 38.4876 5.83222 43.2491 6.91431C44.1916 7.12849 44.844 7.96597 44.844 8.91755C44.844 10.2735 43.5534 11.2639 42.1999 11.0067C38.3343 10.2722 35.4056 10.2553 31.5397 10.9965C30.1898 11.2554 28.8979 10.2703 28.8979 8.91755Z" fill="white"/>
<path d="M39.4078 13.9553C39.4078 15.3335 38.272 16.4507 36.8709 16.4507C35.4698 16.4507 34.334 15.3335 34.334 13.9553C34.334 12.5773 35.4698 11.46 36.8709 11.46C38.272 11.46 39.4078 12.5773 39.4078 13.9553Z" fill="white"/>
<path d="M16.1734 21.297L16.1725 21.2288L16.1719 21.1277L16.1715 21.0203C16.1715 14.6259 19.1094 8.91325 23.7175 5.14175C24.153 6.14223 25.29 6.75835 26.4555 6.50826C21.9007 9.74027 18.9314 15.0358 18.9314 21.0203H54.8106C54.8106 14.9935 51.7991 9.66537 47.1895 6.43999L47.2516 6.45543C48.42 6.74519 49.5801 6.14163 50.0231 5.14052C54.6317 8.91202 57.5705 14.6252 57.5705 21.0203C57.5705 21.0704 57.5701 21.1203 57.5696 21.1702L57.5687 21.2687V21.297C60.658 22.0704 63.1893 24.4058 64.1332 27.541L73.3499 58.1577C75.1149 64.0197 70.6953 69.9154 64.5361 69.9154H9.20571C3.04654 69.9154 -1.37308 64.0197 0.391731 58.1573L9.60866 27.541C10.5524 24.4058 13.084 22.0704 16.1734 21.297Z" fill="white"/>
<path d="M98.9123 44.5877C96.4518 44.5877 94.1191 44.2688 91.9142 43.631C89.7413 42.9612 87.9678 42.0683 86.5937 40.9521C85.8588 40.4099 85.4913 39.6446 85.4913 38.6559C85.4913 37.9862 85.683 37.4122 86.0665 36.9338C86.4819 36.4235 86.9612 36.1684 87.5044 36.1684C88.0796 36.1684 88.7347 36.3916 89.4697 36.8381C90.8437 37.8268 92.2817 38.5443 93.7835 38.9908C95.2854 39.4373 96.9471 39.6605 98.7685 39.6605C101.101 39.6605 102.891 39.2619 104.137 38.4646C105.383 37.6354 106.006 36.4395 106.006 34.8768C106.006 33.6649 105.415 32.7401 104.233 32.1023C103.082 31.4326 101.149 30.7947 98.433 30.1888C95.6209 29.5829 93.3362 28.8813 91.5787 28.084C89.8211 27.2867 88.495 26.2662 87.6003 25.0224C86.7056 23.7787 86.2582 22.2 86.2582 20.2866C86.2582 18.3093 86.8174 16.5394 87.9358 14.9767C89.0542 13.414 90.604 12.2021 92.5852 11.3411C94.5984 10.4481 96.8512 10.0016 99.3437 10.0016C103.913 10.0016 107.636 11.2135 110.512 13.6372C110.927 13.9881 111.215 14.3389 111.375 14.6897C111.566 15.0086 111.662 15.4232 111.662 15.9334C111.662 16.6031 111.455 17.1931 111.039 17.7034C110.656 18.1817 110.192 18.4209 109.649 18.4209C109.33 18.4209 109.026 18.3731 108.738 18.2774C108.483 18.1817 108.131 18.0063 107.684 17.7512C106.374 16.7945 105.096 16.0929 103.849 15.6464C102.635 15.168 101.133 14.9288 99.3437 14.9288C97.1707 14.9288 95.4452 15.3753 94.167 16.2683C92.9208 17.1293 92.2976 18.3412 92.2976 19.9039C92.2976 21.2114 92.8568 22.216 93.9753 22.9176C95.0937 23.6192 96.995 24.273 99.6792 24.8789C102.523 25.5167 104.824 26.2343 106.581 27.0316C108.371 27.797 109.729 28.7856 110.656 29.9975C111.614 31.2093 112.094 32.7242 112.094 34.542C112.094 36.5192 111.534 38.2732 110.416 39.804C109.33 41.3029 107.78 42.4829 105.767 43.3439C103.785 44.1731 101.501 44.5877 98.9123 44.5877Z" fill="white"/>
<path d="M125.979 20.1909C129.239 20.1909 131.651 21.0041 133.217 22.6306C134.815 24.2251 135.614 26.6648 135.614 29.9496V41.6218C135.614 42.4829 135.358 43.1685 134.847 43.6788C134.335 44.1572 133.632 44.3963 132.738 44.3963C131.907 44.3963 131.22 44.1412 130.677 43.631C130.165 43.1207 129.91 42.451 129.91 41.6218V40.5694C129.367 41.8132 128.504 42.7858 127.321 43.4874C126.171 44.1891 124.829 44.5399 123.295 44.5399C121.729 44.5399 120.307 44.2209 119.029 43.5831C117.751 42.9453 116.744 42.0683 116.009 40.9521C115.274 39.8359 114.907 38.5921 114.907 37.2208C114.907 35.4987 115.338 34.1433 116.201 33.1547C117.096 32.1661 118.534 31.4485 120.515 31.002C122.496 30.5556 125.228 30.3323 128.711 30.3323H129.91V29.2321C129.91 27.6694 129.574 26.5373 128.903 25.8356C128.232 25.1021 127.146 24.7354 125.644 24.7354C124.717 24.7354 123.774 24.8789 122.816 25.1659C121.857 25.4211 120.723 25.8038 119.413 26.314C118.582 26.7286 117.975 26.9359 117.591 26.9359C117.016 26.9359 116.537 26.7286 116.153 26.314C115.802 25.8994 115.626 25.3573 115.626 24.6876C115.626 24.1454 115.754 23.683 116.009 23.3003C116.297 22.8857 116.76 22.503 117.399 22.1522C118.518 21.5463 119.844 21.0679 121.378 20.7171C122.944 20.3663 124.477 20.1909 125.979 20.1909ZM124.493 40.2345C126.091 40.2345 127.385 39.7083 128.376 38.6559C129.398 37.5716 129.91 36.1844 129.91 34.4941V33.4895H129.047C126.906 33.4895 125.244 33.5852 124.062 33.7766C122.88 33.9679 122.033 34.3028 121.522 34.7811C121.01 35.2595 120.755 35.9133 120.755 36.7425C120.755 37.763 121.106 38.6081 121.809 39.2778C122.544 39.9156 123.439 40.2345 124.493 40.2345Z" fill="white"/>
<path d="M168.113 20.1909C170.67 20.1909 172.619 20.9563 173.961 22.4871C175.335 23.986 176.022 26.4256 176.022 29.8061V41.574C176.022 42.4988 175.735 43.2164 175.16 43.7266C174.616 44.205 173.897 44.4442 173.003 44.4442C172.14 44.4442 171.421 44.205 170.846 43.7266C170.302 43.2164 170.031 42.4988 170.031 41.574V29.8061C170.031 28.0521 169.711 26.8083 169.072 26.0748C168.465 25.3094 167.522 24.9267 166.244 24.9267C164.678 24.9267 163.432 25.4689 162.505 26.5532C161.579 27.6056 161.115 29.0567 161.115 30.9064V41.574C161.115 42.4988 160.828 43.2164 160.253 43.7266C159.709 44.205 159.006 44.4442 158.144 44.4442C157.281 44.4442 156.562 44.205 155.987 43.7266C155.411 43.2164 155.124 42.4988 155.124 41.574V29.8061C155.124 28.0521 154.804 26.8083 154.165 26.0748C153.558 25.3094 152.615 24.9267 151.337 24.9267C149.771 24.9267 148.525 25.4689 147.599 26.5532C146.704 27.6056 146.256 29.0567 146.256 30.9064V41.574C146.256 42.4988 145.969 43.2164 145.394 43.7266C144.818 44.205 144.1 44.4442 143.237 44.4442C142.374 44.4442 141.655 44.205 141.08 43.7266C140.537 43.2164 140.265 42.4988 140.265 41.574V23.0611C140.265 22.1682 140.553 21.4825 141.128 21.0041C141.703 20.5258 142.422 20.2866 143.285 20.2866C144.115 20.2866 144.787 20.5258 145.298 21.0041C145.841 21.4506 146.113 22.1044 146.113 22.9654V24.1135C146.848 22.8379 147.822 21.8652 149.037 21.1955C150.283 20.5258 151.705 20.1909 153.302 20.1909C156.818 20.1909 159.166 21.6579 160.348 24.5919C161.051 23.2525 162.09 22.1841 163.464 21.3868C164.838 20.5895 166.388 20.1909 168.113 20.1909Z" fill="white"/>
<path d="M190.836 20.1909C194.095 20.1909 196.508 21.0041 198.073 22.6306C199.671 24.2251 200.47 26.6648 200.47 29.9496V41.6218C200.47 42.4829 200.214 43.1685 199.703 43.6788C199.192 44.1572 198.489 44.3963 197.594 44.3963C196.763 44.3963 196.076 44.1412 195.533 43.631C195.022 43.1207 194.766 42.451 194.766 41.6218V40.5694C194.223 41.8132 193.36 42.7858 192.178 43.4874C191.027 44.1891 189.685 44.5399 188.151 44.5399C186.586 44.5399 185.164 44.2209 183.885 43.5831C182.607 42.9453 181.601 42.0683 180.866 40.9521C180.131 39.8359 179.763 38.5921 179.763 37.2208C179.763 35.4987 180.195 34.1433 181.057 33.1547C181.952 32.1661 183.39 31.4485 185.371 31.002C187.352 30.5556 190.085 30.3323 193.568 30.3323H194.766V29.2321C194.766 27.6694 194.43 26.5373 193.759 25.8356C193.088 25.1021 192.002 24.7354 190.5 24.7354C189.573 24.7354 188.631 24.8789 187.672 25.1659C186.713 25.4211 185.579 25.8038 184.269 26.314C183.438 26.7286 182.831 26.9359 182.447 26.9359C181.872 26.9359 181.393 26.7286 181.009 26.314C180.658 25.8994 180.482 25.3573 180.482 24.6876C180.482 24.1454 180.61 23.683 180.866 23.3003C181.153 22.8857 181.617 22.503 182.256 22.1522C183.374 21.5463 184.7 21.0679 186.234 20.7171C187.8 20.3663 189.334 20.1909 190.836 20.1909ZM189.35 40.2345C190.947 40.2345 192.242 39.7083 193.232 38.6559C194.255 37.5716 194.766 36.1844 194.766 34.4941V33.4895H193.903C191.762 33.4895 190.101 33.5852 188.918 33.7766C187.736 33.9679 186.889 34.3028 186.378 34.7811C185.867 35.2595 185.611 35.9133 185.611 36.7425C185.611 37.763 185.962 38.6081 186.665 39.2778C187.4 39.9156 188.295 40.2345 189.35 40.2345Z" fill="white"/>
<path d="M218.207 20.2866C219.037 20.2228 219.693 20.3982 220.172 20.8128C220.651 21.2274 220.891 21.8492 220.891 22.6784C220.891 23.5395 220.683 24.1773 220.268 24.5919C219.852 25.0065 219.101 25.2775 218.015 25.4051L216.577 25.5486C214.692 25.74 213.302 26.3778 212.407 27.4621C211.544 28.5464 211.113 29.9018 211.113 31.5282V41.574C211.113 42.4988 210.825 43.2164 210.25 43.7266C209.675 44.205 208.956 44.4442 208.093 44.4442C207.23 44.4442 206.511 44.205 205.936 43.7266C205.393 43.2164 205.121 42.4988 205.121 41.574V23.0611C205.121 22.1682 205.393 21.4825 205.936 21.0041C206.511 20.5258 207.214 20.2866 208.045 20.2866C208.876 20.2866 209.547 20.5258 210.058 21.0041C210.569 21.4506 210.825 22.1044 210.825 22.9654V24.8789C211.432 23.4757 212.327 22.3914 213.509 21.626C214.724 20.8606 216.066 20.4301 217.536 20.3344L218.207 20.2866Z" fill="white"/>
<path d="M237.202 44.4442C236.275 44.4442 235.524 44.1572 234.949 43.5831C234.406 43.0091 234.134 42.2596 234.134 41.3348V13.2546C234.134 12.3297 234.406 11.5962 234.949 11.0541C235.524 10.48 236.275 10.193 237.202 10.193C238.161 10.193 238.912 10.48 239.455 11.0541C240.03 11.5962 240.318 12.3297 240.318 13.2546V41.3348C240.318 42.2596 240.03 43.0091 239.455 43.5831C238.912 44.1572 238.161 44.4442 237.202 44.4442Z" fill="white"/>
<path d="M259.263 20.1909C262.075 20.1909 264.168 20.9882 265.542 22.5827C266.916 24.1773 267.603 26.5851 267.603 29.8061V41.574C267.603 42.4669 267.331 43.1685 266.788 43.6788C266.277 44.1891 265.558 44.4442 264.631 44.4442C263.704 44.4442 262.969 44.1891 262.426 43.6788C261.883 43.1685 261.611 42.4669 261.611 41.574V30.141C261.611 28.3232 261.26 26.9997 260.557 26.1705C259.886 25.3413 258.815 24.9267 257.345 24.9267C255.62 24.9267 254.23 25.4689 253.175 26.5532C252.153 27.6375 251.642 29.0886 251.642 30.9064V41.574C251.642 42.4669 251.37 43.1685 250.827 43.6788C250.283 44.1891 249.549 44.4442 248.622 44.4442C247.695 44.4442 246.96 44.1891 246.417 43.6788C245.906 43.1685 245.65 42.4669 245.65 41.574V23.0611C245.65 22.2319 245.922 21.5622 246.465 21.052C247.008 20.5417 247.743 20.2866 248.67 20.2866C249.501 20.2866 250.172 20.5417 250.683 21.052C251.226 21.5303 251.498 22.1682 251.498 22.9654V24.257C252.297 22.9495 253.367 21.9449 254.709 21.2433C256.051 20.5417 257.569 20.1909 259.263 20.1909Z" fill="white"/>
<path d="M291.807 10.193C292.701 10.193 293.436 10.4481 294.012 10.9584C294.587 11.4686 294.874 12.1384 294.874 12.9675V41.574C294.874 42.435 294.603 43.1207 294.06 43.631C293.516 44.1412 292.797 44.3963 291.903 44.3963C291.008 44.3963 290.289 44.1412 289.746 43.631C289.202 43.1207 288.931 42.435 288.931 41.574V40.378C288.228 41.6856 287.205 42.7061 285.863 43.4396C284.553 44.1731 283.051 44.5399 281.358 44.5399C279.344 44.5399 277.539 44.0296 275.941 43.0091C274.375 41.9886 273.145 40.5535 272.25 38.7038C271.388 36.8222 270.956 34.6695 270.956 32.2458C270.956 29.8221 271.388 27.7013 272.25 25.8835C273.145 24.0657 274.375 22.6625 275.941 21.6738C277.507 20.6852 279.312 20.1909 281.358 20.1909C283.051 20.1909 284.553 20.5417 285.863 21.2433C287.173 21.9449 288.18 22.9335 288.883 24.2092V12.8719C288.883 12.0746 289.139 11.4368 289.65 10.9584C290.193 10.4481 290.912 10.193 291.807 10.193ZM282.939 39.8997C284.857 39.8997 286.327 39.2459 287.349 37.9384C288.404 36.6308 288.931 34.7652 288.931 32.3415C288.931 29.9177 288.404 28.068 287.349 26.7924C286.327 25.4848 284.873 24.8311 282.987 24.8311C281.07 24.8311 279.584 25.4689 278.53 26.7445C277.475 28.0202 276.948 29.8539 276.948 32.2458C276.948 34.6695 277.475 36.5511 278.53 37.8905C279.584 39.23 281.054 39.8997 282.939 39.8997Z" fill="white"/>
<path d="M309.761 20.1909C313.021 20.1909 315.433 21.0041 316.999 22.6306C318.597 24.2251 319.396 26.6648 319.396 29.9496V41.6218C319.396 42.4829 319.14 43.1685 318.629 43.6788C318.118 44.1572 317.415 44.3963 316.52 44.3963C315.689 44.3963 315.002 44.1412 314.459 43.631C313.948 43.1207 313.692 42.451 313.692 41.6218V40.5694C313.149 41.8132 312.286 42.7858 311.104 43.4874C309.953 44.1891 308.611 44.5399 307.077 44.5399C305.512 44.5399 304.09 44.2209 302.811 43.5831C301.533 42.9453 300.527 42.0683 299.792 40.9521C299.057 39.8359 298.689 38.5921 298.689 37.2208C298.689 35.4987 299.121 34.1433 299.983 33.1547C300.878 32.1661 302.316 31.4485 304.297 31.002C306.278 30.5556 309.011 30.3323 312.494 30.3323H313.692V29.2321C313.692 27.6694 313.356 26.5373 312.685 25.8356C312.014 25.1021 310.928 24.7354 309.426 24.7354C308.499 24.7354 307.557 24.8789 306.598 25.1659C305.639 25.4211 304.505 25.8038 303.195 26.314C302.364 26.7286 301.757 26.9359 301.373 26.9359C300.798 26.9359 300.319 26.7286 299.935 26.314C299.584 25.8994 299.408 25.3573 299.408 24.6876C299.408 24.1454 299.536 23.683 299.792 23.3003C300.079 22.8857 300.543 22.503 301.182 22.1522C302.3 21.5463 303.626 21.0679 305.16 20.7171C306.726 20.3663 308.26 20.1909 309.761 20.1909ZM308.276 40.2345C309.873 40.2345 311.167 39.7083 312.158 38.6559C313.181 37.5716 313.692 36.1844 313.692 34.4941V33.4895H312.829C310.688 33.4895 309.027 33.5852 307.844 33.7766C306.662 33.9679 305.815 34.3028 305.304 34.7811C304.793 35.2595 304.537 35.9133 304.537 36.7425C304.537 37.763 304.888 38.6081 305.591 39.2778C306.326 39.9156 307.221 40.2345 308.276 40.2345Z" fill="white"/>
<path d="M337.756 20.1909C343.252 20.1909 346 23.396 346 29.8061V41.574C346 42.4669 345.728 43.1685 345.185 43.6788C344.674 44.1891 343.955 44.4442 343.028 44.4442C342.102 44.4442 341.367 44.1891 340.823 43.6788C340.28 43.1685 340.008 42.4669 340.008 41.574V29.8061C340.008 28.1159 339.657 26.8881 338.954 26.1227C338.283 25.3254 337.212 24.9267 335.743 24.9267C334.017 24.9267 332.627 25.4689 331.572 26.5532C330.55 27.6375 330.039 29.0886 330.039 30.9064V41.574C330.039 42.4669 329.767 43.1685 329.224 43.6788C328.681 44.1891 327.946 44.4442 327.019 44.4442C326.092 44.4442 325.357 44.1891 324.814 43.6788C324.303 43.1685 324.047 42.4669 324.047 41.574V12.9675C324.047 12.1384 324.319 11.4686 324.862 10.9584C325.437 10.4481 326.172 10.193 327.067 10.193C327.962 10.193 328.681 10.4322 329.224 10.9105C329.767 11.3889 330.039 12.0427 330.039 12.8719V24.0178C330.837 22.7741 331.892 21.8333 333.202 21.1955C334.544 20.5258 336.062 20.1909 337.756 20.1909Z" fill="white"/>
<path d="M99.3474 54.2397C99.6276 54.2397 99.8414 54.328 99.9889 54.5046C100.151 54.6666 100.232 54.8873 100.232 55.167V69.1427C100.232 69.4077 100.159 69.6211 100.011 69.783C99.8635 69.9449 99.6571 70.0259 99.3916 70.0259C99.1261 70.0259 98.927 69.9449 98.7943 69.783C98.6615 69.6211 98.5952 69.4077 98.5952 69.1427V57.8606L93.7946 67.0453C93.5881 67.4721 93.2858 67.6855 92.8876 67.6855C92.5041 67.6855 92.2018 67.4721 91.9806 67.0453L87.1579 57.971V69.1427C87.1579 69.4077 87.0841 69.6211 86.9366 69.783C86.8039 69.9449 86.6048 70.0259 86.3393 70.0259C86.0738 70.0259 85.8674 69.9449 85.7199 69.783C85.5724 69.6211 85.4987 69.4077 85.4987 69.1427V55.167C85.4987 54.8873 85.5798 54.6666 85.742 54.5046C85.9042 54.328 86.1255 54.2397 86.4057 54.2397C86.7744 54.2397 87.0694 54.4531 87.2906 54.88L92.9097 65.6322L98.4624 54.88C98.5804 54.6445 98.7058 54.4826 98.8385 54.3942C98.986 54.2912 99.1556 54.2397 99.3474 54.2397Z" fill="white"/>
<path d="M109.343 58.8983C112.042 58.8983 113.391 60.3113 113.391 63.1374V69.1427C113.391 69.4077 113.31 69.6211 113.148 69.783C113 69.9449 112.794 70.0259 112.528 70.0259C112.263 70.0259 112.049 69.9449 111.887 69.783C111.725 69.6211 111.643 69.4077 111.643 69.1427V68.0829C111.363 68.7159 110.936 69.209 110.36 69.5622C109.785 69.9007 109.122 70.07 108.369 70.07C107.676 70.07 107.035 69.9302 106.445 69.6505C105.87 69.3709 105.412 68.9808 105.073 68.4804C104.734 67.9799 104.564 67.4279 104.564 66.8245C104.564 66.0149 104.771 65.3894 105.184 64.9478C105.597 64.4915 106.275 64.1677 107.219 63.9763C108.163 63.7703 109.475 63.6672 111.157 63.6672H111.643V62.9386C111.643 62.0555 111.459 61.4079 111.09 60.9957C110.736 60.5836 110.154 60.3775 109.343 60.3775C108.34 60.3775 107.322 60.6498 106.29 61.1944C105.892 61.4447 105.611 61.5698 105.449 61.5698C105.272 61.5698 105.125 61.5035 105.007 61.3711C104.889 61.2386 104.83 61.0693 104.83 60.8633C104.83 60.6572 104.889 60.4806 105.007 60.3334C105.139 60.1715 105.346 60.0096 105.626 59.8476C106.142 59.5533 106.725 59.3251 107.374 59.1632C108.038 58.9866 108.694 58.8983 109.343 58.8983ZM108.613 68.657C109.498 68.657 110.22 68.3626 110.781 67.7738C111.356 67.1704 111.643 66.3976 111.643 65.4556V64.8153H111.245C109.947 64.8153 108.959 64.8742 108.281 64.992C107.602 65.095 107.116 65.279 106.821 65.5439C106.541 65.7941 106.4 66.1695 106.4 66.6699C106.4 67.244 106.607 67.7223 107.02 68.105C107.448 68.473 107.979 68.657 108.613 68.657Z" fill="white"/>
<path d="M123.109 58.9424C123.728 58.8983 124.038 59.1485 124.038 59.6931C124.038 59.9286 123.972 60.12 123.839 60.2671C123.706 60.3996 123.478 60.4806 123.153 60.51L122.49 60.5762C121.501 60.6646 120.764 61.0178 120.277 61.636C119.805 62.2395 119.569 62.9534 119.569 63.7776V69.1427C119.569 69.4371 119.488 69.6579 119.326 69.8051C119.164 69.9523 118.95 70.0259 118.684 70.0259C118.419 70.0259 118.198 69.9523 118.021 69.8051C117.859 69.6432 117.777 69.4224 117.777 69.1427V59.8256C117.777 59.5459 117.866 59.3325 118.043 59.1853C118.22 59.0234 118.434 58.9424 118.684 58.9424C118.92 58.9424 119.12 59.0234 119.282 59.1853C119.444 59.3325 119.525 59.5386 119.525 59.8035V61.0399C119.835 60.3923 120.27 59.8992 120.83 59.5606C121.406 59.2221 122.062 59.0234 122.799 58.9645L123.109 58.9424Z" fill="white"/>
<path d="M135.288 68.5024C135.524 68.7232 135.642 68.9587 135.642 69.209C135.642 69.4297 135.561 69.6211 135.399 69.783C135.251 69.9449 135.067 70.0259 134.846 70.0259C134.654 70.0259 134.455 69.9375 134.249 69.7609L128.475 64.7932V69.1427C128.475 69.4224 128.386 69.6432 128.209 69.8051C128.047 69.9523 127.84 70.0259 127.59 70.0259C127.324 70.0259 127.103 69.9523 126.926 69.8051C126.764 69.6432 126.683 69.4224 126.683 69.1427V55.1228C126.683 54.8432 126.764 54.6298 126.926 54.4826C127.103 54.3207 127.324 54.2397 127.59 54.2397C127.84 54.2397 128.047 54.3207 128.209 54.4826C128.386 54.6298 128.475 54.8432 128.475 55.1228V64.0867L133.762 59.2515C133.939 59.0749 134.138 58.9866 134.359 58.9866C134.58 58.9866 134.772 59.0675 134.934 59.2295C135.097 59.3914 135.178 59.5827 135.178 59.8035C135.178 60.0537 135.074 60.2745 134.868 60.4659L130.51 64.3517L135.288 68.5024Z" fill="white"/>
<path d="M146.996 67.4206C147.158 67.4206 147.298 67.4868 147.416 67.6193C147.534 67.7518 147.593 67.921 147.593 68.1271C147.593 68.4951 147.335 68.8336 146.819 69.1427C146.288 69.4518 145.727 69.6873 145.137 69.8492C144.548 69.9964 143.972 70.07 143.412 70.07C141.745 70.07 140.425 69.5769 139.452 68.5908C138.493 67.6046 138.014 66.2431 138.014 64.5062C138.014 63.4023 138.228 62.4308 138.656 61.5919C139.083 60.7382 139.681 60.0758 140.448 59.6048C141.229 59.1338 142.114 58.8983 143.102 58.8983C144.503 58.8983 145.617 59.3546 146.443 60.2671C147.269 61.1797 147.682 62.4161 147.682 63.9763C147.682 64.2707 147.623 64.4841 147.505 64.6166C147.387 64.7491 147.195 64.8153 146.929 64.8153H139.806C139.939 67.347 141.141 68.6128 143.412 68.6128C143.987 68.6128 144.481 68.5392 144.894 68.392C145.307 68.2301 145.75 68.0167 146.221 67.7518C146.605 67.531 146.863 67.4206 146.996 67.4206ZM143.124 60.2892C142.18 60.2892 141.421 60.5836 140.846 61.1724C140.285 61.7611 139.953 62.5928 139.85 63.6672H146.111C146.081 62.578 145.809 61.7464 145.292 61.1724C144.776 60.5836 144.053 60.2892 143.124 60.2892Z" fill="white"/>
<path d="M156.341 68.6128C156.857 68.657 157.115 68.8925 157.115 69.3193C157.115 69.5696 157.019 69.7609 156.827 69.8934C156.65 70.0111 156.378 70.0553 156.009 70.0259L155.411 69.9817C154.232 69.8934 153.361 69.5401 152.801 68.9219C152.241 68.3037 151.96 67.3691 151.96 66.118V60.5762H150.478C150.227 60.5762 150.028 60.5174 149.881 60.3996C149.748 60.2671 149.682 60.0979 149.682 59.8918C149.682 59.671 149.748 59.4944 149.881 59.3619C150.028 59.2295 150.227 59.1632 150.478 59.1632H151.96V56.6683C151.96 56.3887 152.041 56.1753 152.204 56.0281C152.366 55.8661 152.587 55.7852 152.867 55.7852C153.133 55.7852 153.347 55.8661 153.509 56.0281C153.671 56.1753 153.752 56.3887 153.752 56.6683V59.1632H156.208C156.444 59.1632 156.628 59.2295 156.761 59.3619C156.908 59.4944 156.982 59.671 156.982 59.8918C156.982 60.0979 156.908 60.2671 156.761 60.3996C156.628 60.5174 156.444 60.5762 156.208 60.5762H153.752V66.2063C153.752 67.0158 153.915 67.6046 154.239 67.9726C154.578 68.3258 155.08 68.5245 155.743 68.5687L156.341 68.6128Z" fill="white"/>
<path d="M165.407 58.8983C166.351 58.8983 167.185 59.1338 167.907 59.6048C168.63 60.0758 169.19 60.7382 169.589 61.5919C169.987 62.4308 170.186 63.4097 170.186 64.5283C170.186 65.6469 169.987 66.6258 169.589 67.4648C169.19 68.289 168.63 68.9293 167.907 69.3856C167.199 69.8419 166.366 70.07 165.407 70.07C164.567 70.07 163.829 69.886 163.195 69.5181C162.576 69.1501 162.104 68.6276 161.779 67.9505V73.1389C161.779 73.4039 161.698 73.6099 161.536 73.7571C161.388 73.919 161.175 74 160.894 74C160.614 74 160.393 73.919 160.231 73.7571C160.069 73.5952 159.987 73.3892 159.987 73.1389V59.8256C159.987 59.5606 160.069 59.3472 160.231 59.1853C160.393 59.0234 160.614 58.9424 160.894 58.9424C161.175 58.9424 161.388 59.0234 161.536 59.1853C161.698 59.3472 161.779 59.5606 161.779 59.8256V61.0178C162.104 60.3407 162.576 59.8182 163.195 59.4502C163.829 59.0823 164.567 58.8983 165.407 58.8983ZM165.053 68.5908C166.101 68.5908 166.912 68.2375 167.487 67.531C168.062 66.8245 168.35 65.8236 168.35 64.5283C168.35 63.233 168.062 62.2248 167.487 61.5035C166.912 60.7676 166.101 60.3996 165.053 60.3996C164.006 60.3996 163.195 60.7529 162.62 61.4594C162.06 62.1659 161.779 63.1742 161.779 64.4841C161.779 65.7941 162.06 66.8098 162.62 67.531C163.195 68.2375 164.006 68.5908 165.053 68.5908Z" fill="white"/>
<path d="M174.877 70.0259C174.611 70.0259 174.39 69.9523 174.213 69.8051C174.051 69.6432 173.97 69.4224 173.97 69.1427V55.1228C173.97 54.8432 174.051 54.6298 174.213 54.4826C174.39 54.3207 174.611 54.2397 174.877 54.2397C175.127 54.2397 175.334 54.3207 175.496 54.4826C175.673 54.6298 175.761 54.8432 175.761 55.1228V69.1427C175.761 69.4224 175.673 69.6432 175.496 69.8051C175.334 69.9523 175.127 70.0259 174.877 70.0259Z" fill="white"/>
<path d="M184.62 58.8983C187.319 58.8983 188.668 60.3113 188.668 63.1374V69.1427C188.668 69.4077 188.587 69.6211 188.425 69.783C188.277 69.9449 188.071 70.0259 187.805 70.0259C187.54 70.0259 187.326 69.9449 187.164 69.783C187.002 69.6211 186.921 69.4077 186.921 69.1427V68.0829C186.64 68.7159 186.213 69.209 185.637 69.5622C185.062 69.9007 184.399 70.07 183.646 70.07C182.953 70.07 182.312 69.9302 181.722 69.6505C181.147 69.3709 180.689 68.9808 180.35 68.4804C180.011 67.9799 179.841 67.4279 179.841 66.8245C179.841 66.0149 180.048 65.3894 180.461 64.9478C180.874 64.4915 181.552 64.1677 182.496 63.9763C183.44 63.7703 184.753 63.6672 186.434 63.6672H186.921V62.9386C186.921 62.0555 186.736 61.4079 186.367 60.9957C186.013 60.5836 185.431 60.3775 184.62 60.3775C183.617 60.3775 182.599 60.6498 181.567 61.1944C181.169 61.4447 180.888 61.5698 180.726 61.5698C180.549 61.5698 180.402 61.5035 180.284 61.3711C180.166 61.2386 180.107 61.0693 180.107 60.8633C180.107 60.6572 180.166 60.4806 180.284 60.3334C180.416 60.1715 180.623 60.0096 180.903 59.8476C181.419 59.5533 182.002 59.3251 182.651 59.1632C183.315 58.9866 183.971 58.8983 184.62 58.8983ZM183.89 68.657C184.775 68.657 185.497 68.3626 186.058 67.7738C186.633 67.1704 186.921 66.3976 186.921 65.4556V64.8153H186.522C185.224 64.8153 184.236 64.8742 183.558 64.992C182.879 65.095 182.393 65.279 182.098 65.5439C181.818 65.7941 181.677 66.1695 181.677 66.6699C181.677 67.244 181.884 67.7223 182.297 68.105C182.725 68.473 183.256 68.657 183.89 68.657Z" fill="white"/>
<path d="M197.501 70.07C196.498 70.07 195.606 69.8419 194.824 69.3856C194.057 68.9293 193.46 68.2817 193.032 67.4427C192.619 66.6037 192.413 65.6322 192.413 64.5283C192.413 63.4244 192.627 62.4456 193.054 61.5919C193.497 60.7382 194.109 60.0758 194.891 59.6048C195.672 59.1338 196.572 58.8983 197.59 58.8983C198.15 58.8983 198.703 58.9792 199.249 59.1411C199.809 59.2883 200.296 59.5091 200.709 59.8035C200.974 59.9801 201.159 60.1567 201.262 60.3334C201.38 60.4953 201.439 60.6793 201.439 60.8853C201.439 61.0914 201.38 61.2607 201.262 61.3932C201.159 61.5256 201.019 61.5919 200.842 61.5919C200.738 61.5919 200.628 61.5624 200.51 61.5035C200.392 61.4447 200.289 61.3858 200.2 61.3269C200.126 61.268 200.075 61.2312 200.045 61.2165C199.662 60.9663 199.293 60.7676 198.939 60.6204C198.6 60.4732 198.18 60.3996 197.678 60.3996C196.601 60.3996 195.761 60.7676 195.156 61.5035C194.566 62.2248 194.271 63.233 194.271 64.5283C194.271 65.8236 194.566 66.8245 195.156 67.531C195.761 68.2375 196.601 68.5908 197.678 68.5908C198.18 68.5908 198.607 68.5172 198.961 68.37C199.33 68.2228 199.699 68.0241 200.067 67.7738C200.23 67.6708 200.384 67.5825 200.532 67.5089C200.679 67.4353 200.805 67.3985 200.908 67.3985C201.07 67.3985 201.203 67.4648 201.306 67.5972C201.424 67.7297 201.483 67.899 201.483 68.105C201.483 68.2964 201.432 68.473 201.328 68.6349C201.225 68.7821 201.033 68.9514 200.753 69.1427C200.34 69.4224 199.839 69.6505 199.249 69.8272C198.674 69.9891 198.091 70.07 197.501 70.07Z" fill="white"/>
<path d="M213.087 67.4206C213.249 67.4206 213.389 67.4868 213.507 67.6193C213.625 67.7518 213.684 67.921 213.684 68.1271C213.684 68.4951 213.426 68.8336 212.91 69.1427C212.379 69.4518 211.818 69.6873 211.228 69.8492C210.639 69.9964 210.063 70.07 209.503 70.07C207.836 70.07 206.516 69.5769 205.543 68.5908C204.584 67.6046 204.105 66.2431 204.105 64.5062C204.105 63.4023 204.319 62.4308 204.747 61.5919C205.174 60.7382 205.772 60.0758 206.539 59.6048C207.32 59.1338 208.205 58.8983 209.193 58.8983C210.594 58.8983 211.708 59.3546 212.534 60.2671C213.36 61.1797 213.773 62.4161 213.773 63.9763C213.773 64.2707 213.714 64.4841 213.596 64.6166C213.478 64.7491 213.286 64.8153 213.02 64.8153H205.897C206.03 67.347 207.232 68.6128 209.503 68.6128C210.078 68.6128 210.572 68.5392 210.985 68.392C211.398 68.2301 211.841 68.0167 212.312 67.7518C212.696 67.531 212.954 67.4206 213.087 67.4206ZM209.215 60.2892C208.271 60.2892 207.512 60.5836 206.937 61.1724C206.376 61.7611 206.044 62.5928 205.941 63.6672H212.202C212.172 62.578 211.9 61.7464 211.383 61.1724C210.867 60.5836 210.144 60.2892 209.215 60.2892Z" fill="white"/>
<path d="M236.938 68.8115C237.086 68.9734 237.16 69.1501 237.16 69.3414C237.16 69.5328 237.078 69.7094 236.916 69.8713C236.769 70.0185 236.592 70.0921 236.385 70.0921C236.179 70.0921 235.994 70.0111 235.832 69.8492L233.797 67.7297C233.133 68.4951 232.374 69.0765 231.518 69.4739C230.663 69.8713 229.763 70.07 228.819 70.07C227.846 70.07 226.983 69.9081 226.231 69.5843C225.479 69.2458 224.889 68.7674 224.461 68.1492C224.033 67.531 223.82 66.8171 223.82 66.0076C223.82 65.0361 224.122 64.175 224.727 63.4244C225.331 62.659 226.253 61.9157 227.492 61.1944C226.843 60.5174 226.364 59.9065 226.054 59.3619C225.759 58.8173 225.612 58.2286 225.612 57.5956C225.612 56.5359 225.973 55.7042 226.696 55.1008C227.418 54.4973 228.333 54.1955 229.439 54.1955C230.501 54.1955 231.349 54.4752 231.983 55.0345C232.617 55.5938 232.934 56.3592 232.934 57.3307C232.934 58.1255 232.683 58.832 232.182 59.4502C231.695 60.0684 230.921 60.7161 229.859 61.3932L233.598 65.3231C234.099 64.2486 234.394 62.9681 234.483 61.4815C234.497 61.2165 234.586 61.0178 234.748 60.8853C234.91 60.7381 235.095 60.6646 235.301 60.6646C235.522 60.6646 235.707 60.7455 235.854 60.9074C236.002 61.0546 236.068 61.2607 236.053 61.5256C235.921 63.4391 235.463 65.0876 234.682 66.4712L236.938 68.8115ZM229.461 55.5644C228.827 55.5644 228.311 55.7484 227.912 56.1164C227.514 56.4843 227.315 56.9774 227.315 57.5956C227.315 58.0519 227.433 58.4861 227.669 58.8983C227.92 59.3104 228.318 59.7961 228.864 60.3555C229.778 59.7667 230.42 59.2589 230.788 58.832C231.172 58.4052 231.363 57.9342 231.363 57.419C231.363 56.8597 231.186 56.4108 230.832 56.0722C230.493 55.7337 230.036 55.5644 229.461 55.5644ZM228.886 68.6128C229.623 68.6128 230.324 68.4509 230.987 68.1271C231.651 67.8033 232.241 67.3176 232.757 66.6699L228.465 62.2321C227.389 62.8798 226.637 63.4906 226.209 64.0647C225.796 64.624 225.589 65.2569 225.589 65.9634C225.589 66.7877 225.884 67.4353 226.474 67.9063C227.079 68.3773 227.883 68.6128 228.886 68.6128Z" fill="white"/>
<path d="M260.629 68.8778C260.688 68.9955 260.717 69.1206 260.717 69.2531C260.717 69.4739 260.629 69.6579 260.452 69.8051C260.29 69.9523 260.09 70.0259 259.854 70.0259C259.486 70.0259 259.228 69.8492 259.08 69.496L257.509 65.9193H249.169L247.576 69.496C247.429 69.8492 247.171 70.0259 246.802 70.0259C246.566 70.0259 246.36 69.9523 246.183 69.8051C246.006 69.6432 245.917 69.4518 245.917 69.231C245.917 69.1133 245.947 68.9955 246.006 68.8778L252.333 54.8358C252.421 54.6298 252.554 54.4752 252.731 54.3722C252.908 54.2691 253.1 54.2176 253.306 54.2176C253.527 54.2176 253.727 54.2765 253.904 54.3942C254.08 54.4973 254.213 54.6445 254.302 54.8358L260.629 68.8778ZM249.833 64.4179H256.846L253.328 56.4917L249.833 64.4179Z" fill="white"/>
<path d="M269.446 58.9424C270.065 58.8983 270.375 59.1485 270.375 59.6931C270.375 59.9286 270.309 60.12 270.176 60.2671C270.043 60.3996 269.815 60.4806 269.49 60.51L268.826 60.5762C267.838 60.6646 267.101 61.0178 266.614 61.636C266.142 62.2395 265.906 62.9534 265.906 63.7776V69.1427C265.906 69.4371 265.825 69.6579 265.663 69.8051C265.501 69.9523 265.287 70.0259 265.021 70.0259C264.756 70.0259 264.535 69.9523 264.358 69.8051C264.196 69.6432 264.114 69.4224 264.114 69.1427V59.8256C264.114 59.5459 264.203 59.3325 264.38 59.1853C264.557 59.0234 264.771 58.9424 265.021 58.9424C265.257 58.9424 265.457 59.0234 265.619 59.1853C265.781 59.3325 265.862 59.5386 265.862 59.8035V61.0399C266.172 60.3923 266.607 59.8992 267.167 59.5606C267.742 59.2221 268.399 59.0234 269.136 58.9645L269.446 58.9424Z" fill="white"/>
<path d="M278.861 68.6128C279.377 68.657 279.636 68.8925 279.636 69.3193C279.636 69.5696 279.54 69.7609 279.348 69.8934C279.171 70.0111 278.898 70.0553 278.529 70.0259L277.932 69.9817C276.752 69.8934 275.882 69.5401 275.322 68.9219C274.761 68.3037 274.481 67.3691 274.481 66.118V60.5762H272.999C272.748 60.5762 272.549 60.5174 272.402 60.3996C272.269 60.2671 272.202 60.0979 272.202 59.8918C272.202 59.671 272.269 59.4944 272.402 59.3619C272.549 59.2295 272.748 59.1632 272.999 59.1632H274.481V56.6683C274.481 56.3887 274.562 56.1753 274.724 56.0281C274.887 55.8661 275.108 55.7852 275.388 55.7852C275.654 55.7852 275.867 55.8661 276.03 56.0281C276.192 56.1753 276.273 56.3887 276.273 56.6683V59.1632H278.729C278.965 59.1632 279.149 59.2295 279.282 59.3619C279.429 59.4944 279.503 59.671 279.503 59.8918C279.503 60.0979 279.429 60.2671 279.282 60.3996C279.149 60.5174 278.965 60.5762 278.729 60.5762H276.273V66.2063C276.273 67.0158 276.435 67.6046 276.76 67.9726C277.099 68.3258 277.6 68.5245 278.264 68.5687L278.861 68.6128Z" fill="white"/>
<path d="M286.136 70.07C285.458 70.07 284.809 69.9891 284.189 69.8272C283.585 69.6652 283.046 69.4371 282.574 69.1427C282.309 68.9661 282.117 68.8042 281.999 68.657C281.896 68.4951 281.844 68.3037 281.844 68.0829C281.844 67.8916 281.896 67.7371 281.999 67.6193C282.117 67.4868 282.265 67.4206 282.442 67.4206C282.619 67.4206 282.877 67.531 283.216 67.7518C283.658 68.0167 284.094 68.2301 284.521 68.392C284.964 68.5392 285.509 68.6128 286.158 68.6128C286.955 68.6128 287.574 68.473 288.017 68.1933C288.459 67.9137 288.68 67.5089 288.68 66.979C288.68 66.6552 288.599 66.3976 288.437 66.2063C288.275 66.0002 287.994 65.8236 287.596 65.6764C287.198 65.5145 286.615 65.3526 285.849 65.1907C284.551 64.911 283.622 64.5357 283.061 64.0647C282.501 63.5936 282.22 62.9534 282.22 62.1438C282.22 61.5109 282.397 60.9516 282.751 60.4659C283.105 59.9801 283.592 59.5974 284.211 59.3178C284.846 59.0381 285.561 58.8983 286.357 58.8983C286.933 58.8983 287.486 58.9792 288.017 59.1411C288.562 59.2883 289.042 59.5018 289.455 59.7814C289.956 60.1347 290.207 60.5026 290.207 60.8853C290.207 61.0767 290.148 61.2386 290.03 61.3711C289.912 61.5035 289.772 61.5698 289.609 61.5698C289.432 61.5698 289.167 61.4447 288.813 61.1944C288.4 60.9295 288.009 60.7234 287.641 60.5762C287.272 60.4291 286.815 60.3555 286.269 60.3555C285.576 60.3555 285.015 60.51 284.588 60.8191C284.175 61.1282 283.968 61.5403 283.968 62.0555C283.968 62.3793 284.042 62.6443 284.189 62.8503C284.352 63.0417 284.61 63.2183 284.964 63.3802C285.332 63.5274 285.856 63.6746 286.534 63.8218C287.537 64.0426 288.312 64.2854 288.857 64.5504C289.418 64.8153 289.816 65.1391 290.052 65.5218C290.288 65.9045 290.406 66.3903 290.406 66.979C290.406 67.9063 290.015 68.657 289.233 69.231C288.452 69.7904 287.419 70.07 286.136 70.07Z" fill="white"/>
</svg>
