<svg width="543" height="117" viewBox="0 0 543 117" fill="none" xmlns="http://www.w3.org/2000/svg">
<path d="M39.0834 5.35404C39.0834 3.89513 40.0728 2.6095 41.5071 2.24857C53.8923 -0.86839 61.7888 -0.640921 74.1702 2.28821C75.6071 2.62818 76.611 3.90382 76.611 5.36018C76.611 7.48489 74.539 9.00817 72.449 8.48686C62.2904 5.95279 54.8148 5.81486 43.2648 8.54612C41.1516 9.04588 39.0834 7.49602 39.0834 5.35404Z" fill="url(#paint0_linear)"/>
<path d="M45.3381 14.0187C45.3381 12.5248 46.3652 11.2127 47.8433 10.8814C55.3122 9.20752 60.3835 9.16844 67.8538 10.8695C69.3326 11.2062 70.356 12.5227 70.356 14.0187C70.356 16.1503 68.3312 17.7072 66.2076 17.3029C60.143 16.1482 55.5481 16.1217 49.4828 17.2868C47.365 17.6938 45.3381 16.1452 45.3381 14.0187Z" fill="url(#paint1_linear)"/>
<path d="M61.8272 21.9382C61.8272 24.1047 60.0452 25.861 57.847 25.861C55.6489 25.861 53.8669 24.1047 53.8669 21.9382C53.8669 19.7719 55.6489 18.0155 57.847 18.0155C60.0452 18.0155 61.8272 19.7719 61.8272 21.9382Z" fill="url(#paint2_linear)"/>
<path d="M25.3745 33.4795L25.3732 33.3724L25.3722 33.2133L25.3716 33.0446C25.3716 22.9924 29.9809 14.0119 37.2106 8.08299C37.8938 9.65577 39.6776 10.6243 41.5063 10.2312C34.3601 15.312 29.7017 23.6368 29.7017 33.0446H85.9927C85.9927 23.5703 81.2679 15.1943 74.036 10.1239L74.1334 10.1481C75.9665 10.6036 77.7866 9.65484 78.4815 8.08105C85.712 14.01 90.3228 22.9913 90.3228 33.0446C90.3228 33.1232 90.3221 33.2018 90.3214 33.2803L90.3199 33.435V33.4795C95.1667 34.6954 99.1381 38.3666 100.619 43.2952L115.079 91.4258C117.848 100.641 110.914 109.909 101.251 109.909H14.4429C4.77973 109.909 -2.15424 100.641 0.614589 91.425L15.0751 43.2952C16.5558 38.3666 20.5276 34.6954 25.3745 33.4795Z" fill="url(#paint3_linear)"/>
<path d="M155.184 70.0927C151.324 70.0927 147.664 69.5914 144.205 68.5887C140.796 67.5359 138.013 66.1322 135.858 64.3775C134.704 63.5252 134.128 62.322 134.128 60.7678C134.128 59.715 134.429 58.8126 135.03 58.0606C135.682 57.2584 136.434 56.8574 137.286 56.8574C138.189 56.8574 139.217 57.2083 140.37 57.9102C142.525 59.4643 144.781 60.5923 147.138 61.2942C149.494 61.9961 152.101 62.347 154.959 62.347C158.618 62.347 161.426 61.7204 163.381 60.467C165.336 59.1635 166.314 57.2835 166.314 54.8269C166.314 52.9218 165.386 51.468 163.532 50.4653C161.727 49.4125 158.694 48.4098 154.432 47.4572C150.02 46.5047 146.436 45.4017 143.678 44.1484C140.921 42.895 138.841 41.2908 137.437 39.3355C136.033 37.3803 135.331 34.8987 135.331 31.8906C135.331 28.7823 136.208 25.9999 137.963 23.5433C139.718 21.0868 142.149 19.1817 145.258 17.828C148.416 16.4243 151.951 15.7224 155.861 15.7224C163.03 15.7224 168.871 17.6275 173.383 21.4377C174.035 21.9892 174.486 22.5406 174.736 23.0921C175.037 23.5935 175.188 24.2452 175.188 25.0473C175.188 26.1002 174.862 27.0276 174.21 27.8298C173.608 28.5818 172.882 28.9578 172.029 28.9578C171.528 28.9578 171.052 28.8826 170.6 28.7322C170.199 28.5818 169.648 28.306 168.946 27.905C166.891 26.401 164.885 25.298 162.93 24.5961C161.025 23.8441 158.669 23.4681 155.861 23.4681C152.452 23.4681 149.745 24.17 147.739 25.5737C145.784 26.9274 144.806 28.8325 144.806 31.289C144.806 33.3445 145.684 34.9237 147.439 36.0267C149.193 37.1296 152.176 38.1574 156.387 39.1099C160.849 40.1126 164.459 41.2406 167.216 42.494C170.024 43.6972 172.155 45.2513 173.608 47.1564C175.112 49.0615 175.864 51.4429 175.864 54.3005C175.864 57.4088 174.987 60.1662 173.232 62.5726C171.528 64.9289 169.096 66.7839 165.938 68.1375C162.83 69.441 159.245 70.0927 155.184 70.0927Z" fill="#111111"/>
<path d="M197.65 31.7402C202.764 31.7402 206.549 33.0186 209.005 35.5755C211.512 38.0822 212.765 41.9174 212.765 47.0812V65.4303C212.765 66.7839 212.364 67.8618 211.562 68.6639C210.76 69.4159 209.657 69.7919 208.253 69.7919C206.95 69.7919 205.872 69.3909 205.02 68.5887C204.217 67.7866 203.816 66.7338 203.816 65.4303V63.7759C202.964 65.7311 201.61 67.2602 199.755 68.3631C197.951 69.4661 195.845 70.0175 193.439 70.0175C190.982 70.0175 188.751 69.5162 186.746 68.5135C184.74 67.5108 183.161 66.1322 182.008 64.3775C180.855 62.6228 180.278 60.6676 180.278 58.5118C180.278 55.8046 180.955 53.6739 182.309 52.1197C183.713 50.5655 185.969 49.4375 189.077 48.7357C192.185 48.0338 196.472 47.6828 201.936 47.6828H203.816V45.9532C203.816 43.4967 203.29 41.7169 202.237 40.6139C201.184 39.4609 199.48 38.8843 197.123 38.8843C195.67 38.8843 194.191 39.1099 192.687 39.5611C191.183 39.9622 189.403 40.5638 187.347 41.366C186.044 42.0177 185.091 42.3436 184.49 42.3436C183.587 42.3436 182.835 42.0177 182.234 41.366C181.682 40.7142 181.406 39.8619 181.406 38.8091C181.406 37.9568 181.607 37.2299 182.008 36.6283C182.459 35.9766 183.186 35.3749 184.189 34.8235C185.944 33.8709 188.024 33.1189 190.431 32.5674C192.887 32.016 195.294 31.7402 197.65 31.7402ZM195.319 63.2495C197.825 63.2495 199.856 62.4222 201.41 60.7678C203.014 59.0633 203.816 56.8824 203.816 54.2253V52.6461H202.463C199.104 52.6461 196.497 52.7965 194.642 53.0973C192.787 53.3981 191.458 53.9245 190.656 54.6765C189.854 55.4285 189.453 56.4563 189.453 57.7598C189.453 59.3641 190.004 60.6926 191.107 61.7454C192.26 62.7481 193.664 63.2495 195.319 63.2495Z" fill="#111111"/>
<path d="M263.754 31.7402C267.765 31.7402 270.823 32.9434 272.929 35.3499C275.085 37.7062 276.163 41.5414 276.163 46.8556V65.3551C276.163 66.809 275.711 67.937 274.809 68.7391C273.957 69.4911 272.829 69.8671 271.425 69.8671C270.071 69.8671 268.943 69.4911 268.041 68.7391C267.189 67.937 266.763 66.809 266.763 65.3551V46.8556C266.763 44.0983 266.261 42.143 265.259 40.99C264.306 39.7867 262.827 39.1851 260.822 39.1851C258.365 39.1851 256.41 40.0374 254.956 41.742C253.502 43.3964 252.775 45.6775 252.775 48.5853V65.3551C252.775 66.809 252.324 67.937 251.422 68.7391C250.569 69.4911 249.466 69.8671 248.113 69.8671C246.759 69.8671 245.631 69.4911 244.729 68.7391C243.826 67.937 243.375 66.809 243.375 65.3551V46.8556C243.375 44.0983 242.874 42.143 241.871 40.99C240.918 39.7867 239.439 39.1851 237.434 39.1851C234.978 39.1851 233.022 40.0374 231.568 41.742C230.165 43.3964 229.463 45.6775 229.463 48.5853V65.3551C229.463 66.809 229.012 67.937 228.109 68.7391C227.207 69.4911 226.079 69.8671 224.725 69.8671C223.372 69.8671 222.244 69.4911 221.341 68.7391C220.489 67.937 220.063 66.809 220.063 65.3551V36.2523C220.063 34.8485 220.514 33.7707 221.416 33.0186C222.319 32.2666 223.447 31.8906 224.8 31.8906C226.104 31.8906 227.157 32.2666 227.959 33.0186C228.811 33.7205 229.237 34.7483 229.237 36.1019V37.9067C230.39 35.9014 231.919 34.3723 233.824 33.3195C235.78 32.2666 238.011 31.7402 240.517 31.7402C246.032 31.7402 249.717 34.0464 251.572 38.6587C252.675 36.5531 254.304 34.8736 256.46 33.6203C258.616 32.3669 261.047 31.7402 263.754 31.7402Z" fill="#111111"/>
<path d="M299.403 31.7402C304.517 31.7402 308.302 33.0186 310.759 35.5755C313.265 38.0822 314.519 41.9174 314.519 47.0812V65.4303C314.519 66.7839 314.118 67.8618 313.315 68.6639C312.513 69.4159 311.41 69.7919 310.007 69.7919C308.703 69.7919 307.625 69.3909 306.773 68.5887C305.971 67.7866 305.57 66.7338 305.57 65.4303V63.7759C304.717 65.7311 303.364 67.2602 301.509 68.3631C299.704 69.4661 297.598 70.0175 295.192 70.0175C292.735 70.0175 290.504 69.5162 288.499 68.5135C286.494 67.5108 284.915 66.1322 283.761 64.3775C282.608 62.6228 282.032 60.6676 282.032 58.5118C282.032 55.8046 282.709 53.6739 284.062 52.1197C285.466 50.5655 287.722 49.4375 290.83 48.7357C293.939 48.0338 298.225 47.6828 303.69 47.6828H305.57V45.9532C305.57 43.4967 305.043 41.7169 303.991 40.6139C302.938 39.4609 301.233 38.8843 298.877 38.8843C297.423 38.8843 295.944 39.1099 294.44 39.5611C292.936 39.9622 291.156 40.5638 289.101 41.366C287.797 42.0177 286.845 42.3436 286.243 42.3436C285.341 42.3436 284.589 42.0177 283.987 41.366C283.436 40.7142 283.16 39.8619 283.16 38.8091C283.16 37.9568 283.36 37.2299 283.761 36.6283C284.213 35.9766 284.94 35.3749 285.942 34.8235C287.697 33.8709 289.778 33.1189 292.184 32.5674C294.641 32.016 297.047 31.7402 299.403 31.7402ZM297.072 63.2495C299.579 63.2495 301.609 62.4222 303.163 60.7678C304.768 59.0633 305.57 56.8824 305.57 54.2253V52.6461H304.216C300.857 52.6461 298.25 52.7965 296.395 53.0973C294.54 53.3981 293.212 53.9245 292.41 54.6765C291.607 55.4285 291.206 56.4563 291.206 57.7598C291.206 59.3641 291.758 60.6926 292.861 61.7454C294.014 62.7481 295.418 63.2495 297.072 63.2495Z" fill="#111111"/>
<path d="M342.346 31.8906C343.649 31.7904 344.677 32.0661 345.429 32.7178C346.181 33.3696 346.557 34.3472 346.557 35.6507C346.557 37.0043 346.231 38.007 345.58 38.6587C344.928 39.3105 343.75 39.7366 342.045 39.9371L339.789 40.1627C336.831 40.4635 334.65 41.4662 333.247 43.1708C331.893 44.8753 331.216 47.006 331.216 49.5629V65.3551C331.216 66.809 330.765 67.937 329.863 68.7391C328.96 69.4911 327.832 69.8671 326.479 69.8671C325.125 69.8671 323.997 69.4911 323.095 68.7391C322.242 67.937 321.816 66.809 321.816 65.3551V36.2523C321.816 34.8485 322.242 33.7707 323.095 33.0186C323.997 32.2666 325.1 31.8906 326.403 31.8906C327.707 31.8906 328.76 32.2666 329.562 33.0186C330.364 33.7205 330.765 34.7483 330.765 36.1019V39.1099C331.718 36.904 333.121 35.1995 334.976 33.9963C336.881 32.793 338.987 32.1162 341.293 31.9658L342.346 31.8906Z" fill="#111111"/>
<path d="M372.148 69.8671C370.694 69.8671 369.516 69.4159 368.613 68.5135C367.761 67.6111 367.335 66.433 367.335 64.9791V20.8361C367.335 19.3822 367.761 18.2291 368.613 17.3768C369.516 16.4744 370.694 16.0232 372.148 16.0232C373.652 16.0232 374.83 16.4744 375.682 17.3768C376.585 18.2291 377.036 19.3822 377.036 20.8361V64.9791C377.036 66.433 376.585 67.6111 375.682 68.5135C374.83 69.4159 373.652 69.8671 372.148 69.8671Z" fill="#111111"/>
<path d="M406.759 31.7402C411.171 31.7402 414.455 32.9936 416.611 35.5003C418.766 38.007 419.844 41.7921 419.844 46.8556V65.3551C419.844 66.7588 419.418 67.8618 418.566 68.6639C417.764 69.4661 416.636 69.8671 415.182 69.8671C413.728 69.8671 412.575 69.4661 411.722 68.6639C410.87 67.8618 410.444 66.7588 410.444 65.3551V47.382C410.444 44.5244 409.893 42.4438 408.79 41.1404C407.737 39.8369 406.057 39.1851 403.751 39.1851C401.044 39.1851 398.863 40.0374 397.209 41.742C395.604 43.4465 394.802 45.7276 394.802 48.5853V65.3551C394.802 66.7588 394.376 67.8618 393.524 68.6639C392.672 69.4661 391.518 69.8671 390.065 69.8671C388.611 69.8671 387.458 69.4661 386.605 68.6639C385.803 67.8618 385.402 66.7588 385.402 65.3551V36.2523C385.402 34.9488 385.828 33.896 386.681 33.0938C387.533 32.2917 388.686 31.8906 390.14 31.8906C391.443 31.8906 392.496 32.2917 393.298 33.0938C394.15 33.8459 394.577 34.8485 394.577 36.1019V38.1323C395.83 36.0768 397.509 34.4976 399.615 33.3947C401.721 32.2917 404.102 31.7402 406.759 31.7402Z" fill="#111111"/>
<path d="M457.818 16.0232C459.221 16.0232 460.375 16.4243 461.277 17.2264C462.179 18.0286 462.631 19.0814 462.631 20.3849V65.3551C462.631 66.7087 462.204 67.7866 461.352 68.5887C460.5 69.3909 459.372 69.7919 457.968 69.7919C456.564 69.7919 455.436 69.3909 454.584 68.5887C453.732 67.7866 453.306 66.7087 453.306 65.3551V63.4751C452.203 65.5305 450.598 67.1348 448.493 68.2879C446.437 69.441 444.081 70.0175 441.424 70.0175C438.265 70.0175 435.433 69.2154 432.926 67.6111C430.47 66.0068 428.539 63.7508 427.136 60.843C425.782 57.8851 425.105 54.5011 425.105 50.6909C425.105 46.8807 425.782 43.5468 427.136 40.6891C428.539 37.8315 430.47 35.6256 432.926 34.0715C435.383 32.5173 438.215 31.7402 441.424 31.7402C444.081 31.7402 446.437 32.2917 448.493 33.3947C450.548 34.4976 452.128 36.0518 453.23 38.0571V20.2345C453.23 18.9811 453.632 17.9784 454.434 17.2264C455.286 16.4243 456.414 16.0232 457.818 16.0232ZM443.906 62.723C446.914 62.723 449.22 61.6953 450.824 59.6398C452.478 57.5843 453.306 54.6515 453.306 50.8413C453.306 47.0311 452.478 44.1233 450.824 42.118C449.22 40.0625 446.939 39.0347 443.981 39.0347C440.973 39.0347 438.641 40.0374 436.987 42.0428C435.333 44.0481 434.505 46.9308 434.505 50.6909C434.505 54.5011 435.333 57.459 436.987 59.5646C438.641 61.6702 440.948 62.723 443.906 62.723Z" fill="#111111"/>
<path d="M485.987 31.7402C491.101 31.7402 494.886 33.0186 497.342 35.5755C499.849 38.0822 501.102 41.9174 501.102 47.0812V65.4303C501.102 66.7839 500.701 67.8618 499.899 68.6639C499.097 69.4159 497.994 69.7919 496.59 69.7919C495.287 69.7919 494.209 69.3909 493.357 68.5887C492.555 67.7866 492.153 66.7338 492.153 65.4303V63.7759C491.301 65.7311 489.948 67.2602 488.093 68.3631C486.288 69.4661 484.182 70.0175 481.776 70.0175C479.319 70.0175 477.088 69.5162 475.083 68.5135C473.077 67.5108 471.498 66.1322 470.345 64.3775C469.192 62.6228 468.616 60.6676 468.616 58.5118C468.616 55.8046 469.292 53.6739 470.646 52.1197C472.05 50.5655 474.306 49.4375 477.414 48.7357C480.522 48.0338 484.809 47.6828 490.273 47.6828H492.153V45.9532C492.153 43.4967 491.627 41.7169 490.574 40.6139C489.521 39.4609 487.817 38.8843 485.461 38.8843C484.007 38.8843 482.528 39.1099 481.024 39.5611C479.52 39.9622 477.74 40.5638 475.684 41.366C474.381 42.0177 473.428 42.3436 472.827 42.3436C471.924 42.3436 471.172 42.0177 470.571 41.366C470.019 40.7142 469.744 39.8619 469.744 38.8091C469.744 37.9568 469.944 37.2299 470.345 36.6283C470.796 35.9766 471.523 35.3749 472.526 34.8235C474.281 33.8709 476.361 33.1189 478.768 32.5674C481.224 32.016 483.631 31.7402 485.987 31.7402ZM483.656 63.2495C486.162 63.2495 488.193 62.4222 489.747 60.7678C491.351 59.0633 492.153 56.8824 492.153 54.2253V52.6461H490.8C487.441 52.6461 484.834 52.7965 482.979 53.0973C481.124 53.3981 479.795 53.9245 478.993 54.6765C478.191 55.4285 477.79 56.4563 477.79 57.7598C477.79 59.3641 478.342 60.6926 479.444 61.7454C480.598 62.7481 482.001 63.2495 483.656 63.2495Z" fill="#111111"/>
<path d="M529.907 31.7402C538.53 31.7402 542.842 36.7787 542.842 46.8556V65.3551C542.842 66.7588 542.416 67.8618 541.563 68.6639C540.761 69.4661 539.633 69.8671 538.179 69.8671C536.726 69.8671 535.572 69.4661 534.72 68.6639C533.868 67.8618 533.442 66.7588 533.442 65.3551V46.8556C533.442 44.1985 532.89 42.2684 531.787 41.0652C530.735 39.8118 529.055 39.1851 526.749 39.1851C524.042 39.1851 521.861 40.0374 520.206 41.742C518.602 43.4465 517.8 45.7276 517.8 48.5853V65.3551C517.8 66.7588 517.374 67.8618 516.522 68.6639C515.669 69.4661 514.516 69.8671 513.062 69.8671C511.608 69.8671 510.455 69.4661 509.603 68.6639C508.801 67.8618 508.4 66.7588 508.4 65.3551V20.3849C508.4 19.0814 508.826 18.0286 509.678 17.2264C510.581 16.4243 511.734 16.0232 513.137 16.0232C514.541 16.0232 515.669 16.3992 516.522 17.1512C517.374 17.9032 517.8 18.931 517.8 20.2345V37.7563C519.053 35.8011 520.708 34.3221 522.763 33.3195C524.869 32.2666 527.25 31.7402 529.907 31.7402Z" fill="#111111"/>
<path d="M155.867 85.266C156.306 85.266 156.642 85.4048 156.873 85.6825C157.128 85.937 157.255 86.2841 157.255 86.7237V108.694C157.255 109.111 157.139 109.446 156.908 109.701C156.677 109.955 156.353 110.082 155.936 110.082C155.52 110.082 155.207 109.955 154.999 109.701C154.791 109.446 154.687 109.111 154.687 108.694V90.9581L147.155 105.397C146.831 106.068 146.357 106.403 145.732 106.403C145.13 106.403 144.656 106.068 144.309 105.397L136.743 91.1317V108.694C136.743 109.111 136.627 109.446 136.396 109.701C136.187 109.955 135.875 110.082 135.458 110.082C135.042 110.082 134.718 109.955 134.487 109.701C134.255 109.446 134.139 109.111 134.139 108.694V86.7237C134.139 86.2841 134.267 85.937 134.521 85.6825C134.776 85.4048 135.123 85.266 135.563 85.266C136.141 85.266 136.604 85.6015 136.951 86.2725L145.767 103.175L154.478 86.2725C154.664 85.9023 154.86 85.6478 155.069 85.509C155.3 85.347 155.566 85.266 155.867 85.266Z" fill="#111111"/>
<path d="M171.549 92.5894C175.783 92.5894 177.9 94.8107 177.9 99.2534V108.694C177.9 109.111 177.773 109.446 177.518 109.701C177.287 109.955 176.963 110.082 176.547 110.082C176.13 110.082 175.795 109.955 175.54 109.701C175.286 109.446 175.158 109.111 175.158 108.694V107.028C174.719 108.023 174.048 108.798 173.145 109.353C172.243 109.886 171.202 110.152 170.021 110.152C168.934 110.152 167.927 109.932 167.002 109.492C166.099 109.053 165.382 108.439 164.85 107.653C164.318 106.866 164.052 105.998 164.052 105.05C164.052 103.777 164.376 102.794 165.024 102.099C165.671 101.382 166.736 100.873 168.217 100.572C169.698 100.248 171.757 100.086 174.395 100.086H175.158V98.941C175.158 97.5527 174.869 96.5346 174.291 95.8867C173.735 95.2388 172.821 94.9149 171.549 94.9149C169.975 94.9149 168.379 95.3429 166.759 96.1991C166.134 96.5924 165.695 96.7891 165.44 96.7891C165.162 96.7891 164.931 96.685 164.746 96.4767C164.561 96.2685 164.468 96.0024 164.468 95.6784C164.468 95.3545 164.561 95.0768 164.746 94.8454C164.954 94.5909 165.278 94.3364 165.718 94.0819C166.528 93.6191 167.442 93.2604 168.46 93.0059C169.501 92.7282 170.531 92.5894 171.549 92.5894ZM170.403 107.93C171.792 107.93 172.925 107.468 173.805 106.542C174.707 105.593 175.158 104.379 175.158 102.898V101.891H174.534C172.497 101.891 170.947 101.984 169.883 102.169C168.818 102.331 168.055 102.62 167.592 103.037C167.152 103.43 166.932 104.02 166.932 104.807C166.932 105.709 167.256 106.461 167.904 107.063C168.575 107.641 169.408 107.93 170.403 107.93Z" fill="#111111"/>
<path d="M193.147 92.6588C194.118 92.5894 194.604 92.9828 194.604 93.8389C194.604 94.2091 194.5 94.5099 194.292 94.7413C194.084 94.9496 193.725 95.0768 193.216 95.1231L192.175 95.2272C190.624 95.3661 189.468 95.9214 188.704 96.8932C187.964 97.8419 187.593 98.9642 187.593 100.26V108.694C187.593 109.157 187.466 109.504 187.212 109.735C186.957 109.967 186.621 110.082 186.205 110.082C185.788 110.082 185.441 109.967 185.164 109.735C184.909 109.481 184.782 109.134 184.782 108.694V94.0472C184.782 93.6075 184.921 93.272 185.198 93.0406C185.476 92.7861 185.812 92.6588 186.205 92.6588C186.575 92.6588 186.888 92.7861 187.142 93.0406C187.397 93.272 187.524 93.596 187.524 94.0124V95.9561C188.01 94.938 188.692 94.1629 189.572 93.6307C190.474 93.0985 191.504 92.7861 192.661 92.6935L193.147 92.6588Z" fill="#111111"/>
<path d="M212.255 107.687C212.625 108.035 212.81 108.405 212.81 108.798C212.81 109.145 212.683 109.446 212.428 109.701C212.197 109.955 211.908 110.082 211.561 110.082C211.26 110.082 210.947 109.943 210.624 109.666L201.565 101.856V108.694C201.565 109.134 201.426 109.481 201.148 109.735C200.894 109.967 200.57 110.082 200.176 110.082C199.76 110.082 199.413 109.967 199.135 109.735C198.881 109.481 198.753 109.134 198.753 108.694V86.6543C198.753 86.2147 198.881 85.8792 199.135 85.6478C199.413 85.3933 199.76 85.266 200.176 85.266C200.57 85.266 200.894 85.3933 201.148 85.6478C201.426 85.8792 201.565 86.2147 201.565 86.6543V100.746L209.86 93.1447C210.138 92.8671 210.45 92.7282 210.797 92.7282C211.144 92.7282 211.445 92.8555 211.699 93.11C211.954 93.3646 212.081 93.6654 212.081 94.0124C212.081 94.4058 211.919 94.7529 211.595 95.0537L204.758 101.162L212.255 107.687Z" fill="#111111"/>
<path d="M230.623 105.987C230.877 105.987 231.097 106.091 231.282 106.299C231.467 106.507 231.56 106.773 231.56 107.097C231.56 107.676 231.155 108.208 230.345 108.694C229.512 109.18 228.633 109.55 227.707 109.805C226.782 110.036 225.879 110.152 225 110.152C222.385 110.152 220.314 109.377 218.787 107.826C217.283 106.276 216.531 104.136 216.531 101.405C216.531 99.6699 216.867 98.1427 217.538 96.8238C218.209 95.4818 219.146 94.4405 220.349 93.7001C221.575 92.9596 222.964 92.5894 224.514 92.5894C226.712 92.5894 228.459 93.3067 229.755 94.7413C231.051 96.1759 231.699 98.1196 231.699 100.572C231.699 101.035 231.606 101.371 231.421 101.579C231.236 101.787 230.935 101.891 230.519 101.891H219.343C219.551 105.871 221.437 107.861 225 107.861C225.902 107.861 226.678 107.745 227.325 107.514C227.973 107.259 228.668 106.924 229.408 106.507C230.01 106.16 230.414 105.987 230.623 105.987ZM224.549 94.776C223.068 94.776 221.876 95.2388 220.974 96.1644C220.095 97.0899 219.574 98.3973 219.412 100.086H229.234C229.188 98.3741 228.76 97.0668 227.95 96.1644C227.14 95.2388 226.007 94.776 224.549 94.776Z" fill="#111111"/>
<path d="M245.284 107.861C246.094 107.93 246.499 108.301 246.499 108.972C246.499 109.365 246.348 109.666 246.048 109.874C245.77 110.059 245.342 110.129 244.763 110.082L243.826 110.013C241.975 109.874 240.61 109.319 239.731 108.347C238.851 107.375 238.412 105.906 238.412 103.939V95.2272H236.086C235.693 95.2272 235.381 95.1347 235.149 94.9496C234.941 94.7413 234.837 94.4752 234.837 94.1513C234.837 93.8042 234.941 93.5265 235.149 93.3183C235.381 93.11 235.693 93.0059 236.086 93.0059H238.412V89.0839C238.412 88.6443 238.539 88.3087 238.794 88.0774C239.048 87.8228 239.395 87.6956 239.835 87.6956C240.251 87.6956 240.587 87.8228 240.841 88.0774C241.096 88.3087 241.223 88.6443 241.223 89.0839V93.0059H245.076C245.446 93.0059 245.735 93.11 245.943 93.3183C246.175 93.5265 246.29 93.8042 246.29 94.1513C246.29 94.4752 246.175 94.7413 245.943 94.9496C245.735 95.1347 245.446 95.2272 245.076 95.2272H241.223V104.078C241.223 105.35 241.478 106.276 241.987 106.854C242.519 107.41 243.306 107.722 244.347 107.792L245.284 107.861Z" fill="#111111"/>
<path d="M259.509 92.5894C260.99 92.5894 262.297 92.9596 263.431 93.7001C264.565 94.4405 265.444 95.4818 266.069 96.8238C266.693 98.1427 267.006 99.6815 267.006 101.44C267.006 103.199 266.693 104.737 266.069 106.056C265.444 107.352 264.565 108.358 263.431 109.076C262.32 109.793 261.013 110.152 259.509 110.152C258.19 110.152 257.033 109.863 256.038 109.284C255.066 108.706 254.326 107.884 253.817 106.82V114.976C253.817 115.393 253.689 115.717 253.435 115.948C253.204 116.203 252.868 116.33 252.428 116.33C251.989 116.33 251.642 116.203 251.387 115.948C251.133 115.693 251.005 115.37 251.005 114.976V94.0472C251.005 93.6307 251.133 93.2951 251.387 93.0406C251.642 92.7861 251.989 92.6588 252.428 92.6588C252.868 92.6588 253.204 92.7861 253.435 93.0406C253.689 93.2951 253.817 93.6307 253.817 94.0472V95.9214C254.326 94.857 255.066 94.0356 256.038 93.4571C257.033 92.8787 258.19 92.5894 259.509 92.5894ZM258.954 107.826C260.596 107.826 261.869 107.271 262.771 106.16C263.674 105.05 264.125 103.476 264.125 101.44C264.125 99.4038 263.674 97.8188 262.771 96.685C261.869 95.528 260.596 94.9496 258.954 94.9496C257.311 94.9496 256.038 95.5049 255.136 96.6156C254.256 97.7262 253.817 99.3112 253.817 101.371C253.817 103.43 254.256 105.027 255.136 106.16C256.038 107.271 257.311 107.826 258.954 107.826Z" fill="#111111"/>
<path d="M274.365 110.082C273.949 110.082 273.601 109.967 273.324 109.735C273.069 109.481 272.942 109.134 272.942 108.694V86.6543C272.942 86.2147 273.069 85.8792 273.324 85.6478C273.601 85.3933 273.949 85.266 274.365 85.266C274.758 85.266 275.082 85.3933 275.337 85.6478C275.615 85.8792 275.753 86.2147 275.753 86.6543V108.694C275.753 109.134 275.615 109.481 275.337 109.735C275.082 109.967 274.758 110.082 274.365 110.082Z" fill="#111111"/>
<path d="M289.651 92.5894C293.886 92.5894 296.003 94.8107 296.003 99.2534V108.694C296.003 109.111 295.876 109.446 295.621 109.701C295.39 109.955 295.066 110.082 294.649 110.082C294.233 110.082 293.897 109.955 293.643 109.701C293.388 109.446 293.261 109.111 293.261 108.694V107.028C292.821 108.023 292.15 108.798 291.248 109.353C290.345 109.886 289.304 110.152 288.124 110.152C287.037 110.152 286.03 109.932 285.105 109.492C284.202 109.053 283.485 108.439 282.953 107.653C282.42 106.866 282.154 105.998 282.154 105.05C282.154 103.777 282.478 102.794 283.126 102.099C283.774 101.382 284.838 100.873 286.319 100.572C287.8 100.248 289.86 100.086 292.497 100.086H293.261V98.941C293.261 97.5527 292.972 96.5346 292.393 95.8867C291.838 95.2388 290.924 94.9149 289.651 94.9149C288.078 94.9149 286.481 95.3429 284.862 96.1991C284.237 96.5924 283.797 96.7891 283.543 96.7891C283.265 96.7891 283.034 96.685 282.848 96.4767C282.663 96.2685 282.571 96.0024 282.571 95.6784C282.571 95.3545 282.663 95.0768 282.848 94.8454C283.057 94.5909 283.381 94.3364 283.82 94.0819C284.63 93.6191 285.544 93.2604 286.562 93.0059C287.603 92.7282 288.633 92.5894 289.651 92.5894ZM288.506 107.93C289.894 107.93 291.028 107.468 291.907 106.542C292.81 105.593 293.261 104.379 293.261 102.898V101.891H292.636C290.6 101.891 289.05 101.984 287.985 102.169C286.921 102.331 286.157 102.62 285.695 103.037C285.255 103.43 285.035 104.02 285.035 104.807C285.035 105.709 285.359 106.461 286.007 107.063C286.678 107.641 287.511 107.93 288.506 107.93Z" fill="#111111"/>
<path d="M309.861 110.152C308.287 110.152 306.888 109.793 305.661 109.076C304.458 108.358 303.521 107.34 302.85 106.021C302.202 104.703 301.878 103.175 301.878 101.44C301.878 99.7046 302.214 98.1659 302.885 96.8238C303.579 95.4818 304.539 94.4405 305.765 93.7001C306.992 92.9596 308.403 92.5894 310 92.5894C310.879 92.5894 311.747 92.7167 312.603 92.9712C313.482 93.2026 314.246 93.5497 314.894 94.0124C315.31 94.2901 315.599 94.5678 315.761 94.8454C315.946 95.1 316.039 95.3892 316.039 95.7131C316.039 96.0371 315.946 96.3032 315.761 96.5114C315.599 96.7197 315.38 96.8238 315.102 96.8238C314.94 96.8238 314.766 96.7775 314.581 96.685C314.396 96.5924 314.234 96.4999 314.095 96.4073C313.98 96.3148 313.899 96.2569 313.852 96.2338C313.251 95.8404 312.672 95.528 312.117 95.2967C311.585 95.0653 310.925 94.9496 310.139 94.9496C308.449 94.9496 307.131 95.528 306.182 96.685C305.256 97.8188 304.794 99.4038 304.794 101.44C304.794 103.476 305.256 105.05 306.182 106.16C307.131 107.271 308.449 107.826 310.139 107.826C310.925 107.826 311.596 107.711 312.152 107.479C312.73 107.248 313.309 106.935 313.887 106.542C314.142 106.38 314.385 106.241 314.616 106.126C314.847 106.01 315.044 105.952 315.206 105.952C315.461 105.952 315.669 106.056 315.831 106.264C316.016 106.473 316.108 106.739 316.108 107.063C316.108 107.364 316.027 107.641 315.865 107.896C315.703 108.127 315.403 108.393 314.963 108.694C314.315 109.134 313.528 109.492 312.603 109.77C311.7 110.024 310.786 110.152 309.861 110.152Z" fill="#111111"/>
<path d="M334.313 105.987C334.568 105.987 334.788 106.091 334.973 106.299C335.158 106.507 335.25 106.773 335.25 107.097C335.25 107.676 334.846 108.208 334.036 108.694C333.203 109.18 332.323 109.55 331.398 109.805C330.472 110.036 329.57 110.152 328.691 110.152C326.076 110.152 324.005 109.377 322.478 107.826C320.974 106.276 320.222 104.136 320.222 101.405C320.222 99.6699 320.557 98.1427 321.228 96.8238C321.899 95.4818 322.837 94.4405 324.04 93.7001C325.266 92.9596 326.654 92.5894 328.205 92.5894C330.403 92.5894 332.15 93.3067 333.446 94.7413C334.741 96.1759 335.389 98.1196 335.389 100.572C335.389 101.035 335.297 101.371 335.112 101.579C334.927 101.787 334.626 101.891 334.209 101.891H323.033C323.241 105.871 325.127 107.861 328.691 107.861C329.593 107.861 330.368 107.745 331.016 107.514C331.664 107.259 332.358 106.924 333.099 106.507C333.7 106.16 334.105 105.987 334.313 105.987ZM328.239 94.776C326.759 94.776 325.567 95.2388 324.664 96.1644C323.785 97.0899 323.265 98.3973 323.103 100.086H332.925C332.879 98.3741 332.451 97.0668 331.641 96.1644C330.831 95.2388 329.697 94.776 328.239 94.776Z" fill="#111111"/>
<path d="M371.734 108.173C371.966 108.428 372.081 108.706 372.081 109.006C372.081 109.307 371.954 109.585 371.699 109.839C371.468 110.071 371.19 110.186 370.866 110.186C370.543 110.186 370.253 110.059 369.999 109.805L366.806 106.473C365.764 107.676 364.573 108.59 363.231 109.215C361.889 109.839 360.477 110.152 358.996 110.152C357.469 110.152 356.116 109.897 354.935 109.388C353.755 108.856 352.83 108.104 352.159 107.132C351.488 106.16 351.152 105.038 351.152 103.765C351.152 102.238 351.627 100.885 352.575 99.7046C353.524 98.5014 354.97 97.3329 356.914 96.1991C355.896 95.1347 355.144 94.1744 354.658 93.3183C354.195 92.4621 353.964 91.5366 353.964 90.5416C353.964 88.8756 354.531 87.5683 355.664 86.6196C356.798 85.6709 358.233 85.1966 359.968 85.1966C361.634 85.1966 362.965 85.6362 363.96 86.5155C364.955 87.3948 365.452 88.598 365.452 90.1251C365.452 91.3746 365.059 92.4853 364.272 93.4571C363.508 94.429 362.294 95.4471 360.628 96.5114L366.493 102.689C367.28 101 367.743 98.9873 367.882 96.6503C367.905 96.2338 368.044 95.9214 368.298 95.7131C368.553 95.4818 368.842 95.3661 369.166 95.3661C369.513 95.3661 369.802 95.4933 370.033 95.7479C370.265 95.9792 370.369 96.3032 370.346 96.7197C370.138 99.7277 369.42 102.319 368.194 104.494L371.734 108.173ZM360.003 87.3485C359.008 87.3485 358.198 87.6377 357.573 88.2162C356.949 88.7947 356.636 89.5698 356.636 90.5416C356.636 91.2589 356.821 91.9415 357.191 92.5894C357.585 93.2373 358.21 94.0009 359.066 94.8802C360.5 93.9546 361.507 93.1563 362.085 92.4853C362.687 91.8143 362.988 91.0738 362.988 90.264C362.988 89.3847 362.71 88.679 362.155 88.1468C361.623 87.6146 360.905 87.3485 360.003 87.3485ZM359.1 107.861C360.257 107.861 361.356 107.606 362.398 107.097C363.439 106.588 364.364 105.825 365.174 104.807L358.441 97.8303C356.752 98.8485 355.572 99.8087 354.901 100.711C354.253 101.59 353.929 102.585 353.929 103.696C353.929 104.992 354.392 106.01 355.317 106.75C356.266 107.491 357.527 107.861 359.1 107.861Z" fill="#111111"/>
<path d="M408.902 108.278C408.995 108.463 409.041 108.659 409.041 108.868C409.041 109.215 408.902 109.504 408.625 109.735C408.37 109.967 408.058 110.082 407.688 110.082C407.109 110.082 406.704 109.805 406.473 109.249L404.008 103.627H390.923L388.424 109.249C388.193 109.805 387.788 110.082 387.21 110.082C386.839 110.082 386.516 109.967 386.238 109.735C385.96 109.481 385.821 109.18 385.821 108.833C385.821 108.648 385.868 108.463 385.96 108.278L395.887 86.2031C396.026 85.8792 396.234 85.6362 396.511 85.4742C396.789 85.3123 397.09 85.2313 397.414 85.2313C397.761 85.2313 398.073 85.3238 398.351 85.509C398.629 85.6709 398.837 85.9023 398.976 86.2031L408.902 108.278ZM391.965 101.266H402.967L397.449 88.8062L391.965 101.266Z" fill="#111111"/>
<path d="M422.736 92.6588C423.707 92.5894 424.193 92.9828 424.193 93.8389C424.193 94.2091 424.089 94.5099 423.881 94.7413C423.673 94.9496 423.314 95.0768 422.805 95.1231L421.764 95.2272C420.214 95.3661 419.057 95.9214 418.293 96.8932C417.553 97.8419 417.182 98.9642 417.182 100.26V108.694C417.182 109.157 417.055 109.504 416.801 109.735C416.546 109.967 416.211 110.082 415.794 110.082C415.378 110.082 415.03 109.967 414.753 109.735C414.498 109.481 414.371 109.134 414.371 108.694V94.0472C414.371 93.6075 414.51 93.272 414.787 93.0406C415.065 92.7861 415.401 92.6588 415.794 92.6588C416.164 92.6588 416.477 92.7861 416.731 93.0406C416.986 93.272 417.113 93.596 417.113 94.0124V95.9561C417.599 94.938 418.281 94.1629 419.161 93.6307C420.063 93.0985 421.093 92.7861 422.25 92.6935L422.736 92.6588Z" fill="#111111"/>
<path d="M437.507 107.861C438.317 107.93 438.722 108.301 438.722 108.972C438.722 109.365 438.572 109.666 438.271 109.874C437.993 110.059 437.565 110.129 436.987 110.082L436.05 110.013C434.199 109.874 432.833 109.319 431.954 108.347C431.075 107.375 430.635 105.906 430.635 103.939V95.2272H428.31C427.916 95.2272 427.604 95.1347 427.373 94.9496C427.164 94.7413 427.06 94.4752 427.06 94.1513C427.06 93.8042 427.164 93.5265 427.373 93.3183C427.604 93.11 427.916 93.0059 428.31 93.0059H430.635V89.0839C430.635 88.6443 430.763 88.3087 431.017 88.0774C431.272 87.8228 431.619 87.6956 432.058 87.6956C432.475 87.6956 432.81 87.8228 433.065 88.0774C433.319 88.3087 433.447 88.6443 433.447 89.0839V93.0059H437.299C437.669 93.0059 437.959 93.11 438.167 93.3183C438.398 93.5265 438.514 93.8042 438.514 94.1513C438.514 94.4752 438.398 94.7413 438.167 94.9496C437.959 95.1347 437.669 95.2272 437.299 95.2272H433.447V104.078C433.447 105.35 433.701 106.276 434.21 106.854C434.742 107.41 435.529 107.722 436.57 107.792L437.507 107.861Z" fill="#111111"/>
<path d="M448.921 110.152C447.857 110.152 446.839 110.024 445.867 109.77C444.918 109.515 444.073 109.157 443.333 108.694C442.917 108.416 442.616 108.162 442.431 107.93C442.269 107.676 442.188 107.375 442.188 107.028C442.188 106.727 442.269 106.484 442.431 106.299C442.616 106.091 442.847 105.987 443.125 105.987C443.402 105.987 443.807 106.16 444.34 106.507C445.034 106.924 445.716 107.259 446.387 107.514C447.082 107.745 447.938 107.861 448.956 107.861C450.205 107.861 451.177 107.641 451.871 107.202C452.565 106.762 452.912 106.126 452.912 105.293C452.912 104.784 452.785 104.379 452.531 104.078C452.276 103.754 451.837 103.476 451.212 103.245C450.587 102.99 449.673 102.736 448.47 102.481C446.434 102.042 444.976 101.452 444.097 100.711C443.217 99.9707 442.778 98.9641 442.778 97.6915C442.778 96.6965 443.055 95.8173 443.611 95.0537C444.166 94.2901 444.93 93.6885 445.901 93.2489C446.896 92.8092 448.019 92.5894 449.268 92.5894C450.171 92.5894 451.038 92.7167 451.871 92.9712C452.727 93.2026 453.479 93.5381 454.127 93.9777C454.914 94.5331 455.307 95.1115 455.307 95.7131C455.307 96.014 455.215 96.2685 455.03 96.4767C454.845 96.685 454.625 96.7891 454.37 96.7891C454.093 96.7891 453.676 96.5924 453.121 96.1991C452.473 95.7826 451.86 95.4586 451.281 95.2272C450.703 94.9958 449.985 94.8802 449.129 94.8802C448.042 94.8802 447.163 95.1231 446.491 95.609C445.844 96.0949 445.52 96.7428 445.52 97.5527C445.52 98.0617 445.635 98.4782 445.867 98.8022C446.121 99.103 446.526 99.3806 447.082 99.6352C447.66 99.8666 448.481 100.098 449.546 100.329C451.119 100.676 452.334 101.058 453.19 101.475C454.069 101.891 454.694 102.4 455.064 103.002C455.435 103.603 455.62 104.367 455.62 105.293C455.62 106.75 455.007 107.93 453.78 108.833C452.554 109.712 450.934 110.152 448.921 110.152Z" fill="#111111"/>
<defs>
<linearGradient id="paint0_linear" x1="57.8469" y1="0" x2="57.8469" y2="109.909" gradientUnits="userSpaceOnUse">
<stop stop-color="#F38C2D"/>
<stop offset="1" stop-color="#E24A4A"/>
</linearGradient>
<linearGradient id="paint1_linear" x1="57.8469" y1="0" x2="57.8469" y2="109.909" gradientUnits="userSpaceOnUse">
<stop stop-color="#F38C2D"/>
<stop offset="1" stop-color="#E24A4A"/>
</linearGradient>
<linearGradient id="paint2_linear" x1="57.8469" y1="0" x2="57.8469" y2="109.909" gradientUnits="userSpaceOnUse">
<stop stop-color="#F38C2D"/>
<stop offset="1" stop-color="#E24A4A"/>
</linearGradient>
<linearGradient id="paint3_linear" x1="57.8469" y1="0" x2="57.8469" y2="109.909" gradientUnits="userSpaceOnUse">
<stop stop-color="#F38C2D"/>
<stop offset="1" stop-color="#E24A4A"/>
</linearGradient>
</defs>
</svg>
