<svg width="52" height="52" viewBox="0 0 52 52" fill="none" xmlns="http://www.w3.org/2000/svg">
<path fill-rule="evenodd" clip-rule="evenodd" d="M25.9935 0H26.0065C40.3423 0 52 11.6643 52 26C52 40.3358 40.3423 52 26.0065 52C20.7188 52 15.8145 50.427 11.7033 47.7035L1.7095 50.8983L4.94975 41.2393C1.833 36.959 0 31.6875 0 26C0 11.661 11.6578 0 25.9935 0ZM36.0327 40.3845C38.0185 39.9555 40.508 38.4865 41.1352 36.7153C41.7625 34.9408 41.7625 33.4295 41.5805 33.1078C41.4335 32.8525 41.086 32.6852 40.5673 32.4354C40.4322 32.3704 40.2855 32.2997 40.1278 32.2205C39.364 31.8403 35.6493 30.004 34.9473 29.7603C34.2583 29.5003 33.6017 29.5913 33.0817 30.3258C32.9828 30.4643 32.8841 30.603 32.786 30.7411C32.1587 31.6233 31.5536 32.4744 31.0505 33.0168C30.5922 33.5043 29.8447 33.566 29.2175 33.306C29.1491 33.2775 29.0708 33.2459 28.9829 33.2104C27.9898 32.8093 25.787 31.9196 23.1205 29.5458C20.8715 27.5438 19.344 25.051 18.902 24.3035C18.468 23.5537 18.8424 23.114 19.1883 22.7076C19.1947 22.7 19.2011 22.6925 19.2075 22.685C19.4306 22.409 19.647 22.1792 19.8645 21.9483C20.021 21.7822 20.1781 21.6154 20.3385 21.4305C20.3623 21.4031 20.3855 21.3764 20.4081 21.3505C20.7488 20.9587 20.9516 20.7255 21.1803 20.2378C21.4403 19.734 21.255 19.214 21.0697 18.8305C20.9423 18.5619 20.1549 16.6515 19.479 15.0116C19.1898 14.3098 18.921 13.6576 18.733 13.2048C18.2293 11.999 17.8458 11.9535 17.082 11.921C17.0586 11.9199 17.035 11.9187 17.0111 11.9174C16.7697 11.9052 16.5038 11.8918 16.211 11.8918C15.2165 11.8918 14.1798 12.1843 13.5525 12.8245C13.5306 12.8469 13.5077 12.8701 13.484 12.8943C12.6816 13.7104 10.894 15.5283 10.894 19.1523C10.894 22.7832 13.4703 26.2972 13.947 26.9474C13.9601 26.9653 13.9717 26.981 13.9815 26.9945C14.0102 27.0322 14.0642 27.1105 14.1429 27.2244C15.1162 28.6339 19.857 35.4993 26.9263 38.428C32.8997 40.9045 34.6743 40.6738 36.0327 40.3845Z" fill="url(#paint0_linear)"/>
<defs>
<linearGradient id="paint0_linear" x1="26" y1="0" x2="26" y2="52" gradientUnits="userSpaceOnUse">
<stop stop-color="#F38C2D"/>
<stop offset="1" stop-color="#E24A4A"/>
</linearGradient>
</defs>
</svg>
